<?xml version="1.0" standalone="no"?>
<!DOCTYPE svg PUBLIC "-//W3C//DTD SVG 20010904//EN"
 "http://www.w3.org/TR/2001/REC-SVG-20010904/DTD/svg10.dtd">
<svg version="1.0" xmlns="http://www.w3.org/2000/svg"
 width="640.000000pt" height="800.000000pt" viewBox="0 0 640.000000 800.000000"
 preserveAspectRatio="xMidYMid meet">

<g transform="translate(0.000000,800.000000) scale(0.100000,-0.100000)"
fill="#000000" stroke="none">
<path d="M0 6574 l0 -1426 23 6 c84 24 132 38 207 61 415 126 972 227 1540
280 430 40 1260 60 1420 34 87 -14 169 7 228 59 30 27 45 20 67 -28 10 -21 23
-41 30 -44 7 -2 60 -8 118 -12 119 -8 114 -10 232 91 99 85 155 110 155 69 0
-8 10 -14 25 -14 14 0 25 -4 25 -10 0 -5 8 -10 18 -10 37 0 66 -24 68 -56 1
-21 14 -44 43 -73 42 -43 43 -43 57 -22 9 13 26 21 42 21 17 0 34 9 46 25 10
14 27 25 38 25 10 0 27 6 38 13 27 16 42 -5 29 -42 -8 -24 -14 -26 -45 -23
-27 3 -41 -1 -60 -19 -13 -12 -23 -28 -21 -33 2 -6 -7 -19 -20 -29 -26 -21
-30 -45 -8 -53 8 -4 15 -14 15 -24 0 -11 4 -22 10 -25 6 -3 10 0 10 7 0 10 3
9 9 -1 10 -16 19 -2 39 64 5 17 15 29 23 29 25 -2 252 -44 324 -59 39 -8 138
-28 222 -45 l152 -29 60 36 c34 20 61 42 61 49 0 6 16 21 35 33 20 11 44 35
53 53 9 17 31 47 48 67 37 43 54 73 54 97 0 10 10 28 21 40 l22 23 -34 -5
c-46 -7 -52 -1 -100 99 -11 23 -26 53 -32 67 -7 14 -41 44 -76 68 -71 47 -73
48 -186 10 -39 -13 -61 -16 -63 -9 -2 6 -12 11 -23 11 -16 0 -19 7 -19 55 0
30 -3 55 -6 55 -3 0 -20 -11 -38 -25 -36 -27 -56 -32 -56 -12 0 6 -7 20 -15
31 -12 16 -18 17 -46 7 -27 -9 -34 -8 -45 7 -8 9 -12 24 -10 33 4 19 -11 49
-24 49 -6 0 -19 -9 -31 -21 l-21 -21 -14 21 c-8 11 -33 26 -54 32 -22 7 -40
16 -40 21 0 4 -7 8 -15 8 -7 0 -18 6 -22 13 -4 7 -23 19 -41 26 -37 16 -53 39
-46 67 6 24 -18 47 -68 63 -20 7 -42 19 -48 27 -7 7 -19 14 -26 14 -8 0 -14 9
-14 20 0 13 5 18 15 14 46 -18 139 56 175 142 21 48 32 52 84 27 29 -13 38
-14 51 -3 9 7 14 16 13 21 -3 9 -241 129 -256 129 -12 0 -42 -34 -42 -48 0 -7
16 -12 39 -12 46 0 91 -36 91 -74 0 -13 -12 -38 -26 -55 -22 -27 -33 -31 -73
-31 -37 0 -52 5 -69 23 -26 27 -27 47 -7 87 15 28 14 30 -5 30 -12 0 -32 -16
-50 -42 -35 -48 -41 -110 -13 -140 27 -30 -1 -40 -51 -17 -47 21 -49 28 -24
84 33 75 20 142 -34 175 -66 40 -148 16 -227 -65 -48 -50 -61 -55 -61 -25 0
12 -10 35 -22 53 -13 18 -24 34 -25 36 -2 2 -22 -3 -45 -12 -28 -11 -45 -14
-52 -7 -6 6 -18 10 -28 10 -10 0 -27 9 -38 20 -11 11 -44 25 -73 31 -108 21
-112 29 -76 137 35 103 131 230 234 309 56 43 174 100 242 118 71 19 166 19
224 2 24 -8 100 -44 169 -82 69 -37 151 -81 182 -97 31 -15 60 -33 63 -38 4
-6 23 -18 43 -29 20 -10 76 -39 125 -64 87 -47 130 -57 143 -36 4 7 21 9 48 4
22 -3 53 -8 68 -10 30 -3 111 -40 131 -59 7 -6 57 -38 112 -71 55 -32 114 -69
130 -81 38 -28 412 -250 485 -288 30 -16 61 -34 69 -40 7 -5 22 -15 32 -21 71
-39 265 -160 267 -167 2 -4 9 -8 16 -8 7 0 23 -11 36 -25 13 -14 30 -25 37
-25 8 0 12 -4 8 -10 -3 -5 12 -14 33 -19 20 -6 46 -17 57 -25 11 -9 23 -16 28
-16 4 0 7 428 7 950 l0 950 -3200 0 -3200 0 0 -1426z m3999 51 c34 -17 43 -37
32 -68 -12 -32 -33 -47 -74 -54 -30 -4 -35 -2 -40 18 -12 45 -7 78 15 99 26
24 31 24 67 5z m1239 -810 c7 -14 12 -28 12 -30 0 -11 -27 -3 -50 15 -21 17
-23 21 -10 30 24 16 36 12 48 -15z m-1089 -87 c27 -65 15 -76 -30 -27 l-39 42
-23 -21 c-29 -27 -47 -28 -47 -2 0 23 48 48 93 49 24 1 31 -6 46 -41z"/>
<path d="M4413 6935 c13 -27 27 -33 27 -12 0 14 -19 37 -31 37 -4 0 -2 -11 4
-25z"/>
<path d="M4157 6933 c-4 -3 -7 -11 -7 -17 0 -6 5 -5 12 2 6 6 9 14 7 17 -3 3
-9 2 -12 -2z"/>
<path d="M4228 6866 c-26 -20 -22 -26 17 -26 37 0 43 8 23 28 -15 15 -19 15
-40 -2z"/>
<path d="M4435 6801 c-7 -13 125 -82 150 -79 13 2 -7 17 -62 45 -45 24 -84 39
-88 34z"/>
<path d="M4708 6793 c7 -3 16 -2 19 1 4 3 -2 6 -13 5 -11 0 -14 -3 -6 -6z"/>
<path d="M4770 6780 c0 -5 7 -10 15 -10 8 0 15 5 15 10 0 6 -7 10 -15 10 -8 0
-15 -4 -15 -10z"/>
<path d="M5027 6206 c-62 -72 -63 -104 -1 -87 17 4 30 15 33 27 5 30 21 44 50
44 15 0 35 6 45 13 15 11 14 14 -18 25 -20 8 -36 18 -36 23 0 23 -30 4 -73
-45z"/>
<path d="M5578 6223 c7 -3 16 -2 19 1 4 3 -2 6 -13 5 -11 0 -14 -3 -6 -6z"/>
<path d="M6340 5970 c0 -13 50 -33 59 -24 7 7 -28 34 -46 34 -7 0 -13 -5 -13
-10z"/>
<path d="M5808 5854 c-26 -13 -38 -34 -20 -34 12 1 57 38 52 43 -3 3 -17 -1
-32 -9z"/>
<path d="M5736 5795 c-27 -25 -30 -45 -8 -53 6 -2 14 9 18 25 4 15 11 34 17
41 16 20 2 14 -27 -13z"/>
<path d="M5779 5695 c-16 -9 -35 -37 -53 -79 -29 -69 -30 -76 -6 -191 15 -75
6 -157 -21 -181 -30 -27 -69 -103 -57 -110 6 -4 101 -37 212 -74 180 -61 388
-138 471 -174 72 -33 75 -32 75 18 0 25 -4 46 -10 46 -5 0 -10 7 -10 15 0 9
-13 24 -30 33 -16 9 -30 23 -30 30 0 6 -7 12 -15 12 -7 0 -18 6 -22 13 -4 8
-28 26 -53 40 -25 15 -57 39 -71 54 -14 15 -56 45 -93 67 -36 21 -66 43 -66
47 0 5 -6 9 -13 9 -8 0 -22 9 -32 20 -10 11 -23 20 -29 20 -7 0 -19 30 -27 68
-14 58 -14 71 -2 95 8 15 11 33 7 39 -19 30 -49 58 -62 58 -11 0 -13 8 -9 35
5 29 -14 106 -26 105 -1 -1 -14 -7 -28 -15z m31 -116 c13 -47 14 -44 -22 -53
-27 -6 -28 -5 -28 29 0 41 16 78 30 70 5 -3 14 -24 20 -46z"/>
<path d="M5563 5693 c-23 -9 -13 -23 16 -23 16 0 34 -7 41 -15 17 -21 30 -19
30 5 0 13 -7 20 -19 20 -11 0 -23 5 -26 10 -7 11 -22 12 -42 3z"/>
<path d="M4083 5385 c-17 -7 -39 -27 -48 -44 -20 -39 -39 -41 -32 -4 4 23 3
25 -7 11 -7 -9 -25 -18 -41 -20 -34 -3 -40 -25 -12 -42 14 -9 20 -7 28 7 6 9
15 15 20 12 5 -4 7 -11 3 -16 -3 -6 3 -17 15 -25 12 -8 21 -22 21 -30 0 -18 6
-18 41 3 16 10 29 24 29 32 0 8 12 34 26 58 39 66 23 87 -43 58z"/>
<path d="M2955 5340 c-8 -12 20 -24 35 -15 6 3 8 11 5 16 -8 12 -32 12 -40 -1z"/>
<path d="M4227 5304 c-10 -10 2 -24 22 -24 9 0 26 7 37 15 18 13 17 14 -17 15
-20 0 -39 -3 -42 -6z"/>
<path d="M956 5275 c-36 -25 -39 -25 -52 -8 -13 17 -15 17 -25 1 -5 -10 -14
-18 -20 -18 -16 0 -59 -51 -59 -70 0 -10 11 -25 24 -33 18 -12 23 -25 23 -56
0 -28 -4 -41 -13 -41 -8 0 -14 11 -14 27 0 14 -7 33 -15 42 -8 9 -23 26 -35
39 -11 12 -24 22 -28 22 -17 0 -32 -52 -26 -89 7 -36 7 -36 -14 -18 -28 25
-46 13 -38 -25 5 -26 4 -29 -8 -18 -8 6 -12 19 -8 28 5 15 4 15 -12 0 -9 -10
-24 -18 -32 -18 -10 0 -14 -8 -12 -22 2 -14 10 -23 20 -23 28 0 29 -10 4 -34
-27 -25 -47 -22 -40 7 3 9 -7 31 -20 47 -23 28 -25 29 -31 10 -12 -38 -23 -50
-41 -46 -18 3 -18 2 0 -18 15 -17 17 -24 8 -33 -9 -9 -19 -8 -42 5 -36 22 -37
16 -5 -38 33 -57 68 -80 95 -63 11 7 20 21 20 31 0 24 24 47 49 47 27 0 26 -6
-5 -43 -16 -19 -22 -33 -15 -35 18 -6 58 6 74 22 12 13 19 13 51 -2 20 -9 36
-19 36 -23 0 -3 -17 -9 -37 -11 -21 -3 -55 -15 -75 -27 -31 -19 -38 -29 -44
-67 -8 -53 -3 -61 25 -42 12 8 18 18 15 21 -4 3 -3 18 0 33 6 24 8 25 25 10 9
-9 21 -12 27 -7 5 4 17 0 26 -10 17 -18 17 -19 -6 -35 -14 -8 -44 -25 -68 -37
-24 -12 -49 -33 -55 -47 -13 -25 -13 -25 -13 9 0 19 -6 42 -14 50 -8 9 -16 36
-19 61 -4 43 -5 45 -41 51 -27 4 -52 20 -87 55 -27 26 -49 46 -50 44 0 -3 -2
-22 -3 -42 -2 -30 2 -41 21 -54 20 -12 22 -18 12 -30 -10 -13 -14 -12 -30 2
-21 19 -24 18 -33 -13 -5 -16 -2 -23 15 -28 14 -5 25 -2 30 6 7 11 13 9 28
-11 15 -18 27 -24 49 -22 34 4 62 -22 44 -40 -20 -20 -198 31 -218 63 -3 5
-12 9 -21 9 -11 0 -13 -5 -8 -17 4 -10 8 -40 8 -67 1 -38 -3 -52 -21 -66 -12
-10 -20 -25 -17 -33 7 -18 -20 -41 -40 -33 -9 3 -15 0 -15 -9 0 -8 -8 -18 -17
-24 -14 -7 -15 -12 -5 -24 9 -11 10 -17 2 -22 -15 -9 -2 -25 21 -25 20 0 26
-24 9 -35 -20 -12 -80 16 -86 40 -5 21 -8 23 -27 12 -12 -7 -25 -16 -28 -21
-4 -5 -12 -5 -18 -2 -8 5 -11 -65 -11 -253 0 -153 4 -261 9 -261 16 0 71 -51
86 -79 12 -23 11 -34 -5 -81 -10 -31 -21 -96 -23 -146 -3 -50 -9 -99 -15 -110
-6 -10 -13 -26 -17 -34 -3 -8 -12 -26 -19 -38 -11 -19 -14 -134 -15 -583 -1
-517 0 -558 16 -552 9 4 14 2 10 -3 -3 -6 7 -18 24 -28 16 -9 29 -22 29 -27 0
-6 4 -7 10 -4 14 9 12 -19 -2 -33 -9 -9 -8 -12 6 -12 9 0 14 5 11 10 -8 13 -2
13 29 -3 14 -8 23 -17 19 -20 -3 -4 0 -7 9 -7 8 0 23 -9 34 -21 10 -11 32 -27
49 -35 18 -8 21 -12 8 -8 -13 3 -23 1 -23 -5 0 -12 37 -24 50 -16 6 4 10 3 9
-2 -1 -4 -1 -16 0 -25 1 -22 21 -24 21 -3 0 20 13 19 34 -4 14 -15 14 -20 4
-25 -7 -3 -2 -4 11 -2 26 5 61 -9 74 -30 10 -17 37 -18 38 -1 0 6 5 2 11 -9 5
-12 22 -24 37 -27 14 -3 35 -13 46 -22 11 -9 14 -14 8 -10 -7 3 -13 1 -13 -5
0 -6 10 -8 25 -4 24 6 85 -14 85 -28 0 -5 9 -8 21 -8 11 0 17 -5 14 -10 -3 -6
1 -10 10 -10 9 0 13 -4 10 -10 -3 -5 1 -10 9 -10 8 0 17 4 20 9 3 5 21 5 41 1
19 -4 35 -5 35 -2 0 3 5 1 12 -6 7 -7 20 -12 31 -12 11 0 15 -4 11 -11 -3 -6
0 -15 7 -20 11 -7 9 -9 -5 -9 -15 0 -17 -3 -8 -12 8 -8 15 -8 24 -1 16 13 69
23 62 12 -2 -4 13 -6 33 -4 21 3 29 2 18 -1 -11 -3 -24 -11 -30 -16 -10 -11
14 -8 63 7 16 6 22 4 20 -6 -2 -7 6 -14 17 -16 17 -3 18 -2 5 7 -12 9 -10 10
10 4 14 -4 27 -11 30 -15 4 -5 22 -10 42 -11 20 -2 34 -6 31 -10 -2 -5 6 -9
19 -10 42 -2 47 -3 54 -11 4 -4 20 -7 36 -7 16 0 27 -4 24 -9 -3 -5 -15 -7
-25 -4 -10 3 -21 1 -24 -4 -3 -5 26 -9 64 -9 41 0 69 4 69 11 0 5 5 2 11 -8 7
-12 17 -16 30 -12 30 10 81 -4 75 -21 -7 -17 15 -18 33 -2 9 8 11 8 8 2 -4 -7
0 -15 8 -18 11 -4 15 0 13 11 -2 9 3 18 11 21 10 3 12 0 8 -12 -6 -14 -4 -15
15 -5 17 9 23 9 26 0 4 -13 58 -15 66 -2 7 11 46 2 46 -10 0 -5 8 -9 18 -9 14
0 15 2 2 10 -10 7 4 9 47 7 33 -1 59 -6 55 -11 -3 -5 4 -7 15 -4 11 3 27 1 36
-4 19 -10 61 7 52 22 -3 5 17 7 45 5 27 -2 50 -1 50 3 0 4 27 7 60 8 35 0 55
-3 48 -8 -10 -6 -8 -8 5 -8 10 0 20 6 23 13 3 8 18 12 40 10 21 -1 42 4 50 12
10 10 25 12 46 8 25 -5 30 -3 23 8 -6 11 -5 12 6 2 18 -17 40 -16 33 1 -3 9 6
16 28 21 54 13 79 14 73 4 -10 -15 7 -10 28 8 11 10 17 13 14 6 -5 -7 0 -9 14
-6 11 3 18 11 15 18 -3 9 2 11 15 8 12 -4 25 1 33 12 7 10 18 15 24 11 7 -4
17 -4 23 0 8 4 7 9 -2 15 -10 6 -8 9 9 9 12 0 22 6 23 13 0 6 5 0 11 -15 5
-16 15 -28 20 -28 6 0 8 3 5 7 -4 3 -2 12 4 20 9 10 8 13 -2 13 -10 1 -8 4 4
11 9 5 17 16 17 24 0 7 9 16 20 19 11 3 29 9 40 12 15 4 18 2 14 -10 -3 -9 -2
-16 4 -16 5 0 12 7 16 15 3 8 16 15 28 16 21 0 21 1 4 8 -17 7 -18 8 -3 14 9
3 19 2 23 -4 3 -6 11 -8 18 -6 6 3 20 -1 31 -9 18 -14 18 -14 -1 -15 -15 -1
-14 -2 5 -8 13 -3 40 -29 59 -56 36 -54 69 -70 109 -54 14 5 29 7 32 3 3 -4 0
-9 -6 -11 -10 -3 -9 -9 3 -20 13 -13 13 -17 2 -24 -9 -6 -4 -9 15 -9 15 0 27
-5 27 -11 0 -6 13 -8 31 -5 22 3 29 1 26 -8 -4 -10 15 -13 84 -14 48 -1 97 -6
108 -11 14 -8 27 -7 48 3 72 37 114 53 119 45 8 -14 34 -10 34 5 0 15 37 29
45 17 4 -8 24 -8 65 2 14 3 44 8 68 10 36 4 41 3 31 -9 -9 -11 -8 -14 4 -14 9
0 18 4 22 10 9 14 114 10 129 -5 13 -14 126 -39 134 -30 3 3 11 0 18 -6 9 -7
43 -6 119 5 58 9 121 16 140 16 37 0 115 27 115 40 0 4 18 19 40 34 26 17 37
31 34 41 -4 8 -2 15 3 15 5 0 9 9 10 20 2 17 -1 18 -17 10 -25 -13 -33 -13
-27 3 3 8 -10 13 -43 14 -30 1 -56 8 -69 20 -12 10 -38 20 -59 23 -29 4 -38
10 -40 28 -4 26 -6 26 -32 10 -17 -11 -22 -10 -30 2 -8 13 -10 12 -10 -2 0
-10 -6 -18 -13 -18 -15 0 -86 37 -103 55 -8 7 -19 15 -26 17 -8 3 -5 12 10 28
37 40 21 61 -28 35 -34 -17 -45 -48 -37 -105 3 -27 1 -43 -9 -51 -8 -6 -11
-15 -8 -20 3 -5 -5 -13 -18 -18 -13 -6 -18 -10 -13 -11 22 -1 -22 -20 -47 -20
-16 0 -28 -4 -28 -9 0 -15 -30 -22 -48 -11 -16 9 -16 9 1 10 9 0 17 5 17 10 0
18 -31 10 -38 -10 -7 -19 -9 -19 -27 -5 -19 14 -18 16 32 64 29 27 53 53 53
58 0 5 17 22 37 36 38 27 39 36 2 17 -15 -9 -19 -7 -19 7 0 16 -2 16 -11 3 -9
-12 -10 -11 -6 8 4 15 0 22 -10 22 -8 0 -13 6 -10 13 2 6 19 12 37 12 18 0 35
6 37 13 3 6 -1 12 -7 12 -9 0 -9 5 1 17 12 15 12 16 -5 10 -16 -6 -17 -5 -6 8
7 8 9 15 4 15 -4 0 2 9 14 20 12 11 27 20 34 20 9 0 9 3 -2 10 -8 5 -10 10 -5
10 6 0 11 12 12 27 1 29 29 56 47 46 6 -3 5 0 -1 8 -19 20 -16 37 9 45 18 5
19 8 6 15 -10 6 -14 17 -11 30 5 18 7 19 15 5 5 -9 22 -16 37 -16 16 0 45 -7
64 -15 42 -17 50 -19 43 -6 -3 5 1 22 9 37 8 16 15 23 15 17 0 -7 5 -13 11
-13 6 0 8 9 4 20 -4 14 -2 20 9 20 12 0 14 -5 6 -24 -8 -23 -5 -36 11 -36 11
0 3 61 -10 69 -9 6 -7 12 5 22 12 9 15 10 10 2 -4 -7 -2 -13 3 -13 6 0 11 -9
11 -20 0 -11 5 -20 10 -20 6 0 10 4 10 8 0 15 34 9 46 -7 10 -13 14 -13 28 -2
9 7 13 17 10 22 -3 5 0 9 5 9 6 0 11 7 11 16 0 21 30 14 44 -11 6 -10 17 -26
24 -33 9 -10 10 -18 4 -24 -16 -16 17 -92 48 -113 15 -10 41 -48 58 -84 42
-87 55 -103 90 -105 16 -1 35 -6 43 -12 8 -6 44 -10 81 -9 49 1 69 -2 73 -12
3 -10 -1 -13 -14 -8 -11 3 -22 1 -26 -5 -3 -5 1 -10 9 -10 21 0 31 -21 15 -32
-11 -8 -10 -8 4 -4 10 3 27 6 38 6 10 0 19 4 19 9 0 5 -8 7 -19 4 -28 -7 -36
16 -9 26 13 6 17 10 11 10 -19 1 -16 31 2 31 9 0 18 6 20 12 3 7 23 14 46 15
62 2 92 12 85 28 -3 8 3 17 15 20 13 4 19 15 19 36 0 16 -4 29 -9 29 -5 0 -8
23 -7 51 3 50 -11 79 -36 79 -6 0 -3 9 7 20 10 11 21 17 26 15 4 -3 3 9 -2 27
-6 23 -6 34 2 37 6 2 1 10 -10 18 -12 8 -21 22 -21 31 0 14 2 15 10 2 5 -8 12
-11 16 -7 4 4 0 15 -9 24 -8 10 -18 35 -22 56 -7 35 -9 37 -46 37 -21 0 -41 4
-44 10 -4 6 1 7 12 3 15 -6 16 -5 3 9 -8 8 -19 14 -25 12 -5 -2 -35 5 -65 15
-38 13 -57 15 -62 8 -8 -14 -48 19 -48 40 0 7 -7 13 -16 13 -10 0 -14 6 -10
15 3 8 0 15 -7 15 -8 0 -6 4 3 10 13 8 12 10 -2 10 -10 0 -18 5 -18 10 0 6 -5
10 -11 10 -6 0 -9 -7 -5 -15 4 -13 2 -14 -14 -5 -22 12 -27 21 -9 17 6 -1 12
8 14 20 2 32 4 32 59 22 56 -10 99 -35 176 -99 30 -25 74 -54 98 -64 23 -11
42 -22 42 -25 0 -4 13 -14 29 -24 35 -21 113 -22 167 -3 22 7 45 11 53 8 8 -3
20 3 27 13 8 11 21 16 34 12 11 -3 20 -2 20 3 0 4 11 5 25 2 14 -2 25 -11 25
-18 0 -8 6 -14 14 -14 8 0 18 -9 21 -20 3 -11 10 -20 15 -20 14 0 21 -33 8
-42 -10 -6 -10 -10 2 -18 8 -5 10 -10 4 -10 -7 0 -14 -9 -17 -20 -5 -18 3 -25
26 -21 4 0 7 -12 7 -28 0 -16 4 -31 10 -33 5 -1 12 -23 15 -48 3 -24 8 -46 10
-48 2 -3 0 -13 -5 -23 -7 -12 -6 -22 3 -31 20 -19 28 -60 15 -75 -8 -10 -5
-13 11 -13 18 0 21 -4 16 -20 -5 -14 -2 -20 9 -20 9 0 16 -7 16 -15 0 -8 6
-15 13 -15 8 0 7 -3 -3 -10 -12 -8 -12 -10 2 -15 10 -4 22 -3 29 1 8 4 9 3 5
-4 -4 -8 0 -12 11 -12 17 -1 16 -2 -2 -16 -19 -15 -18 -15 14 -12 18 2 33 0
32 -5 -2 -25 -34 -118 -42 -122 -5 -4 -9 -16 -9 -28 -1 -12 -7 -39 -14 -59
-13 -35 -12 -38 5 -38 10 0 20 -4 23 -9 8 -12 -30 -21 -42 -9 -5 5 -22 -4 -44
-26 -45 -45 -84 -54 -250 -59 -85 -2 -143 -8 -151 -16 -8 -6 -22 -9 -31 -5 -9
3 -16 1 -16 -5 0 -6 -6 -11 -13 -11 -13 0 -37 -39 -43 -68 -3 -17 -24 -42 -34
-42 -5 0 -7 8 -5 18 2 9 4 21 4 25 1 5 6 5 11 2 6 -3 10 -2 10 3 0 13 -29 24
-42 16 -5 -3 -8 -15 -5 -25 3 -10 0 -20 -7 -23 -6 -3 1 -15 18 -29 18 -16 24
-27 17 -31 -18 -12 -13 -22 28 -50 42 -29 70 -31 176 -14 33 6 69 11 80 12 11
1 39 6 63 11 36 6 43 11 39 26 -5 20 6 24 51 20 14 -1 22 4 22 15 0 10 5 14
14 11 17 -7 66 28 66 46 0 7 12 23 26 36 14 13 23 30 20 38 -5 11 0 13 16 7
16 -5 20 -3 15 9 -3 8 0 18 8 21 8 3 19 23 26 45 13 44 18 48 37 29 9 -9 12
-9 12 0 0 7 6 12 14 12 8 0 17 7 20 16 3 8 10 13 15 9 5 -3 12 4 16 15 7 22
13 24 34 11 9 -6 21 -5 33 2 21 14 25 39 4 31 -8 -3 -17 -1 -20 4 -7 12 22 25
36 16 6 -4 8 -1 6 7 -3 9 -16 13 -34 11 -16 -2 -25 0 -21 4 4 5 40 9 79 11 52
2 74 7 83 19 7 11 17 14 25 9 10 -6 12 -4 7 8 -3 8 0 18 8 21 9 3 12 0 8 -10
-4 -10 0 -12 11 -8 9 3 16 13 16 21 0 13 3 13 15 3 8 -7 15 -8 15 -2 0 5 10
12 23 16 18 5 20 8 7 16 -12 8 -11 10 7 10 12 0 25 5 28 10 3 5 15 10 27 10
14 0 18 5 14 16 -3 8 -2 13 3 10 17 -11 39 37 29 64 -7 20 -5 28 11 42 23 18
28 33 9 25 -14 -5 -17 51 -4 71 10 17 -2 32 -24 32 -23 0 -35 16 -19 26 8 4 9
3 5 -4 -4 -7 -3 -12 3 -12 15 0 26 23 13 28 -7 2 -12 13 -12 23 0 12 -4 17
-11 14 -6 -4 -6 1 2 12 10 16 7 26 -14 60 -20 31 -23 43 -14 52 9 9 8 11 -5 6
-10 -4 -18 -10 -18 -14 0 -4 -12 -13 -26 -19 -14 -7 -23 -8 -19 -3 3 5 -6 8
-20 7 -31 -3 -38 -19 -10 -24 32 -6 39 -19 14 -27 -18 -6 -28 -1 -47 20 -17
21 -26 25 -35 16 -8 -8 -7 -11 6 -11 9 0 17 -4 17 -9 0 -12 -47 -20 -58 -9 -8
8 -39 13 -122 18 -19 1 -27 4 -18 7 10 2 15 10 11 19 -3 8 0 14 6 14 6 0 10
-3 10 -7 -4 -22 3 -24 21 -8 11 10 33 18 50 19 16 1 30 5 30 9 0 5 5 5 10 2 6
-3 10 -1 10 4 0 6 9 11 21 11 11 0 18 4 14 9 -3 5 -1 12 5 16 5 3 10 13 10 22
0 14 -3 13 -22 -3 l-22 -19 17 27 c20 32 22 52 5 43 -7 -4 -4 0 6 9 10 8 23
13 28 10 5 -3 7 0 6 7 -2 6 3 14 10 16 6 3 12 -1 12 -8 0 -7 6 -5 14 6 8 11
12 26 9 35 -4 12 -3 12 5 1 7 -9 12 -10 16 -2 10 15 -23 26 -37 12 -15 -15
-32 -14 -19 2 13 15 -10 51 -24 37 -6 -6 -15 -5 -24 1 -12 9 -12 10 4 5 14 -5
17 -2 12 10 -3 8 -6 17 -6 19 0 2 -9 1 -19 -2 -11 -3 -21 -14 -23 -24 -3 -22
-21 -22 -25 -1 -2 20 -13 28 -13 10 0 -9 -11 -19 -24 -22 -24 -6 -45 -36 -25
-36 6 0 24 -13 40 -29 29 -30 39 -48 17 -35 -7 4 -8 3 -4 -5 4 -6 11 -9 16 -6
17 10 21 -15 6 -31 -9 -8 -16 -24 -16 -35 0 -10 -4 -19 -10 -19 -5 0 -10 6
-10 14 0 14 -29 30 -38 21 -3 -3 0 -5 6 -5 7 0 12 -8 12 -17 0 -15 -2 -15 -9
-4 -5 8 -16 11 -25 8 -14 -5 -15 -3 -7 11 7 12 5 22 -6 34 -10 11 -12 18 -5
18 7 0 12 -4 12 -9 0 -5 8 -11 19 -14 15 -3 18 0 14 17 -4 20 -4 20 16 -3 23
-26 28 -16 6 12 -9 13 -20 17 -34 12 -12 -3 -21 -2 -21 4 0 5 9 13 20 16 11 3
20 10 20 15 0 8 -59 34 -72 31 -5 0 -8 5 -8 12 0 6 -7 3 -16 -8 -12 -16 -16
-17 -23 -6 -7 11 -11 10 -19 -4 -6 -11 -16 -16 -26 -12 -15 6 -22 -14 -17 -46
2 -14 -31 -20 -39 -7 -4 7 -13 9 -19 6 -6 -4 -9 -12 -6 -17 4 -5 -5 -9 -19 -9
-19 0 -26 -5 -26 -19 0 -11 4 -22 10 -26 5 -3 6 -13 3 -21 -4 -10 -13 3 -25
38 -28 77 -38 122 -29 131 5 5 5 21 0 35 -33 102 -58 194 -54 205 2 6 7 30 9
52 10 76 14 83 67 94 28 6 63 11 79 11 22 0 31 7 42 30 7 17 19 30 27 30 8 0
11 6 7 16 -4 10 -2 13 6 8 8 -5 9 -2 4 12 -22 54 10 68 91 40 26 -9 55 -16 65
-16 20 0 68 -38 68 -54 0 -5 7 -17 15 -26 14 -15 23 -88 30 -240 4 -80 3 -78
14 -60 6 8 7 27 4 42 -5 25 -3 28 20 28 16 0 28 7 32 19 5 18 62 37 93 32 6
-1 12 3 12 9 0 5 8 10 18 10 40 0 42 13 42 322 0 164 -2 298 -5 298 -4 0 -19
-7 -36 -15 -16 -9 -34 -13 -39 -10 -6 3 -10 1 -10 -6 0 -10 -3 -10 -12 -1 -20
20 -34 14 -33 -15 l0 -28 -98 2 -97 3 -40 -41 c-32 -33 -41 -38 -46 -25 -9 23
-41 20 -47 -4 -4 -16 -11 -19 -30 -15 -22 6 -26 3 -32 -25 -4 -17 -10 -29 -13
-27 -4 2 -22 9 -39 16 -40 16 -41 26 -5 45 24 13 25 15 9 21 -22 9 -132 -46
-132 -66 0 -8 12 -15 28 -17 15 -2 27 1 27 6 0 5 11 7 25 4 30 -5 32 -16 5
-35 -11 -8 -17 -17 -13 -20 3 -4 1 -7 -5 -7 -7 0 -12 5 -12 11 0 5 -5 7 -10 4
-6 -4 -7 -11 -4 -17 4 -6 -2 -5 -15 1 -25 14 -39 7 -51 -25 -6 -14 -15 -22
-23 -18 -8 3 -17 -3 -21 -13 -6 -15 -8 -15 -16 -3 -8 13 -10 12 -10 -2 0 -13
-8 -18 -28 -18 -15 0 -34 -6 -41 -12 -11 -11 -13 -10 -8 4 4 12 2 15 -8 12 -7
-3 -15 -14 -18 -25 -4 -13 -14 -19 -34 -19 -22 0 -33 -7 -41 -24 -9 -20 -17
-24 -50 -23 -42 2 -42 2 -8 -48 12 -16 33 -53 48 -82 14 -29 42 -72 61 -95 30
-37 67 -102 67 -116 0 -2 -7 1 -15 8 -9 8 -15 8 -15 2 0 -6 11 -19 25 -29 19
-13 23 -24 18 -41 -4 -17 -8 -20 -14 -11 -5 9 -23 12 -50 10 -28 -2 -39 1 -34
8 4 7 -6 17 -24 24 -17 7 -28 17 -24 21 7 8 -19 2 -56 -12 -9 -3 -12 -1 -7 6
4 8 2 10 -8 6 -8 -3 -12 -13 -10 -22 5 -15 4 -15 -9 0 -8 10 -17 15 -20 11 -4
-3 -7 -1 -7 5 0 12 14 16 35 12 7 -1 6 2 0 9 -13 13 -66 18 -83 7 -7 -4 -12
-2 -12 3 0 7 -13 9 -32 6 -34 -5 -79 18 -63 32 4 5 10 2 12 -4 3 -7 9 -13 13
-13 14 0 -18 55 -32 55 -7 0 -19 -6 -25 -15 -12 -13 -14 -13 -26 2 -8 10 -17
15 -21 11 -9 -9 -35 28 -36 51 0 17 -2 17 -24 3 -22 -15 -25 -15 -30 -1 -4 10
-13 13 -25 9 -14 -4 -20 1 -24 22 -8 41 -40 76 -56 60 -10 -9 -15 -8 -26 7 -8
10 -12 23 -9 28 3 5 -1 17 -10 27 -9 10 -17 30 -18 44 -1 15 -6 27 -10 27 -18
0 -23 -6 -20 -24 2 -11 -1 -16 -7 -11 -6 3 -9 11 -6 16 4 5 0 9 -8 9 -17 0
-27 21 -27 53 0 17 -2 19 -9 8 -7 -11 -12 -9 -24 10 -8 13 -18 34 -22 47 -7
25 -23 29 -31 7 -10 -24 -24 -17 -24 12 0 14 -3 23 -7 20 -3 -4 -12 5 -20 19
-16 31 -17 48 -3 39 6 -4 8 -11 5 -16 -4 -5 1 -9 10 -9 9 0 14 -4 10 -9 -3 -6
4 -15 15 -21 12 -6 20 -7 20 -1 0 5 3 18 6 28 4 14 4 15 -4 4 -8 -11 -12 -10
-21 8 -7 11 -9 21 -5 21 4 0 -3 8 -14 19 -12 10 -22 27 -22 37 0 29 -15 45
-33 38 -10 -3 -17 -1 -17 6 0 19 -59 72 -74 67 -10 -4 -12 0 -9 14 4 13 0 19
-10 19 -13 0 -13 5 -4 30 12 31 25 32 87 7 14 -6 36 -12 49 -13 l24 -3 -23 24
c-29 31 -19 45 35 45 24 0 46 4 49 8 3 5 29 14 58 21 65 16 91 33 82 55 -9 25
-33 19 -40 -10 -5 -19 -12 -24 -25 -21 -11 3 -19 0 -19 -6 0 -7 -5 -6 -11 3
-8 11 -12 12 -16 3 -11 -29 -22 -10 -19 30 3 24 0 50 -5 58 -6 10 -9 5 -9 -18
0 -23 -5 -33 -15 -33 -8 0 -15 -4 -15 -9 0 -5 -9 -11 -20 -14 -11 -3 -20 -1
-20 5 0 5 -18 8 -41 7 -28 -2 -45 1 -53 12 -6 9 -17 14 -23 12 -7 -3 -13 2
-13 11 0 8 -6 13 -12 11 -19 -8 -20 52 -2 91 9 19 20 31 25 28 5 -3 9 2 9 11
0 11 -6 15 -18 11 -22 -7 -112 70 -112 96 0 8 -7 21 -15 28 -28 23 -83 154
-90 214 -7 50 -44 140 -66 156 -3 3 -30 52 -60 110 -29 58 -68 122 -86 143
-40 45 -41 60 -6 93 27 25 27 26 8 40 -18 13 -21 13 -32 -3 -7 -9 -13 -23 -13
-30 0 -25 -21 -12 -84 51 -36 35 -97 87 -138 115 -40 28 -89 65 -109 82 -20
17 -54 35 -75 40 -48 11 -131 12 -137 2 -2 -5 -2 -2 -1 5 5 17 -27 28 -103 37
-38 4 -71 14 -84 26 -27 23 -69 25 -69 4 0 -12 -12 -14 -70 -11 -38 3 -79 10
-90 16 -12 6 -44 8 -82 4 -73 -7 -113 5 -115 34 -2 29 -29 66 -69 97 l-34 26
0 -23 c0 -13 14 -47 30 -77 16 -29 27 -58 24 -63 -4 -7 -45 -8 -111 -3 -57 4
-137 7 -178 7 -52 -1 -77 4 -86 14 -6 8 -19 14 -28 15 -10 0 -11 2 -3 6 20 8
13 20 -15 26 -70 13 -107 27 -115 41 -14 25 -47 19 -58 -9 -5 -13 -6 -47 -3
-74 6 -56 8 -54 -87 -82 -25 -7 -74 -26 -108 -41 -35 -15 -71 -28 -81 -28 -9
0 -25 -6 -36 -14 -11 -7 -66 -37 -122 -65 -102 -51 -156 -94 -168 -131 -4 -11
-12 -20 -19 -20 -16 0 -58 -44 -50 -52 3 -4 -4 -16 -16 -28 -22 -22 -22 -22
-15 -1 3 12 2 21 -4 21 -23 0 -41 -14 -41 -32 0 -17 -3 -18 -15 -8 -8 7 -22
10 -30 6 -9 -3 -15 0 -15 9 0 8 -9 15 -19 15 -11 0 -21 6 -23 14 -5 21 -38
-10 -63 -59 -11 -21 -29 -43 -40 -49 -11 -6 -22 -14 -25 -17 -3 -3 -30 -22
-61 -42 -73 -48 -94 -43 -84 22 9 62 37 91 89 92 23 1 55 4 71 8 28 6 30 9 29
48 -1 25 2 40 8 37 15 -10 58 5 58 20 0 7 -13 16 -28 19 -19 4 -34 17 -47 41
-22 40 -30 44 -39 20 -5 -12 -14 -15 -36 -10 -17 3 -30 1 -30 -4 0 -6 6 -10
13 -10 21 0 48 -35 41 -54 -3 -9 -10 -16 -14 -16 -4 0 -24 -11 -44 -25 -45
-30 -58 -26 -45 17 6 22 5 34 -3 39 -8 5 -7 14 5 33 9 14 17 34 17 44 0 10 13
28 29 40 23 17 30 30 33 67 2 25 0 45 -4 45 -3 0 -18 -13 -31 -30 -29 -34 -39
-37 -58 -13 -8 9 -27 24 -43 34 l-29 18 25 11 c18 9 24 18 21 31 -3 10 1 29
10 42 13 20 13 26 0 50 -15 30 -33 28 -33 -3 0 -19 -59 -122 -73 -129 -5 -2
-12 -14 -18 -28 -10 -28 -29 -22 -29 9 0 34 43 118 60 115 10 -1 16 7 17 28 1
17 3 37 6 45 2 8 7 27 11 41 4 15 6 37 4 49 l-3 22 -39 -27z m1782 -203 c5
-17 -25 -15 -31 2 -4 9 0 13 11 12 9 -2 18 -8 20 -14z m176 -13 c-3 -5 -10 -7
-15 -3 -5 3 -7 10 -3 15 3 5 10 7 15 3 5 -3 7 -10 3 -15z m-354 -29 c0 -5 -7
-7 -15 -4 -8 4 -15 8 -15 10 0 2 7 4 15 4 8 0 15 -4 15 -10z m335 -30 c0 -20
-6 -26 -29 -28 -16 -2 -33 1 -39 7 -8 8 -5 11 12 11 18 0 21 4 16 21 -6 17 -3
20 17 17 17 -2 23 -9 23 -28z m-709 -17 c-11 -11 -19 6 -11 24 8 17 8 17 12 0
3 -10 2 -21 -1 -24z m514 27 c0 -5 -4 -10 -9 -10 -6 0 -13 5 -16 10 -3 6 1 10
9 10 9 0 16 -4 16 -10z m-600 -26 c0 -17 -22 -14 -28 4 -2 7 3 12 12 12 9 0
16 -7 16 -16z m577 1 c8 -9 13 -19 10 -22 -10 -10 -37 6 -37 22 0 19 7 19 27
0z m460 -43 c4 -35 3 -38 -21 -38 -26 0 -31 17 -7 27 11 4 10 8 -3 21 -15 16
-15 18 1 27 23 12 25 10 30 -37z m544 16 c11 -21 11 -22 -4 -9 -10 7 -17 17
-17 22 0 15 9 10 21 -13z m-1136 2 c-3 -5 -10 -10 -16 -10 -5 0 -9 5 -9 10 0
6 7 10 16 10 8 0 12 -4 9 -10z m535 0 c0 -5 -5 -10 -11 -10 -5 0 -7 5 -4 10 3
6 8 10 11 10 2 0 4 -4 4 -10z m140 4 c0 -8 -32 -33 -42 -34 -5 0 -8 5 -8 10 0
6 7 10 15 10 8 0 15 5 15 10 0 6 5 10 10 10 6 0 10 -3 10 -6z m-2395 -35 c20
-39 14 -46 -19 -22 -24 17 -38 52 -16 38 6 -3 10 -1 10 4 0 19 9 12 25 -20z
m2025 22 c0 -12 -20 -25 -27 -18 -7 7 6 27 18 27 5 0 9 -4 9 -9z m30 -7 c0 -8
-5 -12 -10 -9 -6 4 -8 11 -5 16 9 14 15 11 15 -7z m-1826 -22 c-1 -6 -2 -23
-2 -37 -1 -14 -6 -25 -11 -25 -13 0 -34 57 -26 70 9 14 40 8 39 -8z m936 14
c0 -3 -4 -8 -10 -11 -5 -3 -10 -1 -10 4 0 6 5 11 10 11 6 0 10 -2 10 -4z m720
-5 c0 -11 -31 -24 -39 -16 -3 3 1 10 9 15 19 12 30 12 30 1z m-880 -11 c0 -5
-7 -10 -16 -10 -8 0 -12 5 -9 10 3 6 10 10 16 10 5 0 9 -4 9 -10z m990 -21 c0
-11 -4 -19 -10 -19 -5 0 -10 7 -10 17 0 14 -2 14 -20 -2 -22 -20 -26 -14 -8
14 14 23 48 16 48 -10z m40 6 c0 -14 -4 -25 -10 -25 -11 0 -14 33 -3 43 11 11
13 8 13 -18z m368 13 c20 -20 13 -31 -17 -25 -20 4 -31 2 -35 -8 -3 -8 -12
-15 -21 -15 -8 0 -15 -4 -15 -10 0 -5 -7 -10 -15 -10 -8 0 -15 7 -15 16 0 8 4
12 10 9 5 -3 24 8 41 25 35 33 49 36 67 18z m-568 -12 c0 -3 -4 -8 -10 -11 -5
-3 -10 -1 -10 4 0 6 5 11 10 11 6 0 10 -2 10 -4z m615 -6 c3 -5 1 -10 -4 -10
-6 0 -11 5 -11 10 0 6 2 10 4 10 3 0 8 -4 11 -10z m149 1 c3 -5 -2 -15 -11
-22 -12 -10 -14 -10 -9 -1 9 14 -12 16 -34 2 -10 -6 -11 -10 -2 -10 20 0 14
-25 -13 -48 -14 -12 -25 -26 -25 -32 0 -5 -11 -10 -25 -10 -33 0 -32 9 10 57
19 23 35 46 35 51 0 19 64 30 74 13z m-489 -21 c3 -6 -1 -13 -10 -16 -19 -8
-30 0 -20 15 8 14 22 14 30 1z m-750 -20 c3 -5 1 -10 -4 -10 -6 0 -11 5 -11
10 0 6 2 10 4 10 3 0 8 -4 11 -10z m1268 -16 c-20 -15 -43 -18 -43 -6 0 11 43
31 53 25 5 -3 0 -11 -10 -19z m67 2 c0 -3 -4 -8 -10 -11 -5 -3 -10 -1 -10 4 0
6 5 11 10 11 6 0 10 -2 10 -4z m240 -6 c0 -5 -5 -10 -11 -10 -5 0 -7 5 -4 10
3 6 8 10 11 10 2 0 4 -4 4 -10z m-1900 -26 c0 -16 -26 -19 -35 -4 -3 6 -4 14
0 20 8 13 35 1 35 -16z m670 17 c0 -12 -20 -25 -27 -18 -7 7 6 27 18 27 5 0 9
-4 9 -9z m400 5 c0 -3 -4 -8 -10 -11 -5 -3 -10 -1 -10 4 0 6 5 11 10 11 6 0
10 -2 10 -4z m224 -19 c-6 -16 -33 -31 -41 -23 -2 2 6 13 18 25 25 23 33 22
23 -2z m-1422 -9 c-7 -7 -12 -8 -12 -2 0 14 12 26 19 19 2 -3 -1 -11 -7 -17z
m38 -3 c-10 -12 -10 -19 -2 -27 15 -15 16 -32 2 -23 -5 3 -10 0 -10 -7 0 -10
-2 -10 -9 1 -13 21 11 92 27 76 3 -2 -1 -12 -8 -20z m550 0 c0 -8 -4 -15 -10
-15 -5 0 -7 7 -4 15 4 8 8 15 10 15 2 0 4 -7 4 -15z m65 -5 c-3 -5 -10 -10
-16 -10 -5 0 -9 5 -9 10 0 6 7 10 16 10 8 0 12 -4 9 -10z m545 6 c0 -3 -4 -8
-10 -11 -5 -3 -10 -1 -10 4 0 6 5 11 10 11 6 0 10 -2 10 -4z m-35 -15 c3 -5 1
-13 -5 -16 -15 -9 -43 3 -35 15 8 13 32 13 40 1z m-105 -10 c0 -5 -7 -11 -14
-14 -10 -4 -13 -1 -9 9 6 15 23 19 23 5z m-2355 -21 c3 -5 -1 -10 -9 -10 -9 0
-16 5 -16 10 0 6 4 10 9 10 6 0 13 -4 16 -10z m1945 0 c0 -5 -5 -10 -11 -10
-5 0 -7 5 -4 10 3 6 8 10 11 10 2 0 4 -4 4 -10z m930 0 c0 -5 -7 -10 -16 -10
-8 0 -12 5 -9 10 3 6 10 10 16 10 5 0 9 -4 9 -10z m-2300 -15 c0 -8 -4 -15
-10 -15 -5 0 -10 7 -10 15 0 8 5 15 10 15 6 0 10 -7 10 -15z m600 -5 c14 -27
-12 -54 -54 -56 -28 -2 -29 -1 -11 12 10 8 22 14 27 14 4 0 8 8 8 18 0 17 8
32 16 32 2 0 8 -9 14 -20z m60 10 c0 -5 -2 -10 -4 -10 -3 0 -8 5 -11 10 -3 6
-1 10 4 10 6 0 11 -4 11 -10z m-825 -20 c4 -6 -7 -10 -24 -10 -17 0 -31 5 -31
10 0 6 11 10 24 10 14 0 28 -4 31 -10z m1014 -5 c8 0 16 -6 19 -12 2 -7 -3
-13 -10 -13 -17 0 -38 20 -38 35 0 6 3 7 8 0 4 -5 13 -10 21 -10z m1062 5 c5
0 9 -4 9 -10 0 -15 -20 -12 -38 7 -16 16 -16 16 1 10 10 -4 23 -7 28 -7z m89
5 c0 -2 -9 -9 -20 -15 -16 -9 -20 -8 -20 5 0 8 9 15 20 15 11 0 20 -2 20 -5z
m-2012 -27 c2 -12 -2 -15 -17 -11 -12 3 -21 12 -21 20 0 20 34 12 38 -9z
m2622 5 c0 -6 -27 -33 -33 -33 -2 0 -2 11 0 24 3 16 10 23 19 19 8 -3 14 -7
14 -10z m-317 1 c3 -4 2 -15 -4 -25 -8 -15 -14 -17 -28 -9 -23 12 -35 1 -19
-17 9 -11 9 -17 -3 -24 -21 -13 -33 -11 -20 5 6 7 9 21 5 29 -4 12 2 18 20 23
14 3 26 10 26 15 0 10 14 12 23 3z m-2333 -71 c0 -16 -15 -16 -41 -3 -16 9
-19 7 -19 -12 0 -15 -3 -19 -10 -12 -7 7 -6 20 5 40 8 16 15 36 15 44 0 18 49
-39 50 -57z m860 41 c0 -8 -7 -14 -15 -14 -15 0 -21 21 -9 33 10 9 24 -2 24
-19z m90 1 c0 -16 -6 -25 -15 -25 -16 0 -19 9 -9 34 9 25 24 19 24 -9z m1120
18 c0 -5 -4 -14 -9 -21 -7 -11 -9 -11 -14 1 -3 8 -3 18 0 21 9 8 23 7 23 -1z
m625 -12 c-15 -14 -55 -23 -55 -13 0 15 12 22 39 22 15 0 21 -4 16 -9z m-2075
-31 c10 -6 11 -10 3 -10 -7 0 -13 -6 -13 -14 0 -8 -6 -17 -12 -19 -10 -4 -10
-8 1 -15 11 -8 11 -11 0 -18 -23 -14 -60 -16 -74 -4 -11 9 -20 6 -42 -14 -15
-14 -24 -26 -19 -26 5 0 3 -7 -4 -15 -11 -13 -10 -18 6 -30 19 -13 19 -14 -1
-29 -31 -24 -50 -15 -24 11 8 8 8 17 0 32 -30 58 -30 59 -17 70 7 6 21 9 30 5
9 -3 16 -2 16 4 0 10 37 26 54 23 5 -1 12 3 16 9 4 6 16 12 28 13 11 0 18 5
16 9 -6 9 4 28 14 28 4 0 14 -5 22 -10z m-746 -16 c9 -23 7 -34 -4 -34 -5 0
-10 7 -10 15 0 8 -4 15 -10 15 -5 0 -10 5 -10 10 0 16 27 11 34 -6z m1801 0
c-7 -8 -21 -11 -29 -8 -22 9 -11 22 18 22 21 0 23 -3 11 -14z m1020 0 c-9 -9
-19 -13 -23 -10 -3 4 0 11 8 16 24 15 33 11 15 -6z m-2925 -4 c8 -5 12 -12 8
-15 -8 -8 -58 5 -58 16 0 12 31 11 50 -1z m667 4 c-3 -3 -12 -4 -19 -1 -8 3
-5 6 6 6 11 1 17 -2 13 -5z m-37 -8 c0 -3 -4 -8 -10 -11 -5 -3 -10 -1 -10 4 0
6 5 11 10 11 6 0 10 -2 10 -4z m70 -6 c0 -5 -18 -19 -40 -30 -48 -24 -53 -11
-7 19 36 23 47 26 47 11z m194 -1 c3 -3 -4 -5 -14 -6 -11 -1 -20 2 -20 7 0 8
25 8 34 -1z m1374 -1 c-6 -18 -28 -21 -28 -4 0 9 7 16 16 16 9 0 14 -5 12 -12z
m342 2 c0 -5 -5 -10 -11 -10 -5 0 -7 5 -4 10 3 6 8 10 11 10 2 0 4 -4 4 -10z
m103 -5 c-3 -9 -8 -14 -10 -11 -3 3 -2 9 2 15 9 16 15 13 8 -4z m67 0 c0 -8
-7 -15 -15 -15 -9 0 -12 6 -9 15 4 8 10 15 15 15 5 0 9 -7 9 -15z m364 -1 c3
-8 2 -12 -4 -9 -6 3 -10 10 -10 16 0 14 7 11 14 -7z m-129 -4 c4 -6 -6 -10
-22 -10 -22 0 -25 2 -13 10 19 12 27 12 35 0z m-1835 -20 c0 -5 -2 -10 -4 -10
-3 0 -8 5 -11 10 -3 6 -1 10 4 10 6 0 11 -4 11 -10z m905 0 c3 -5 2 -10 -4
-10 -5 0 -13 5 -16 10 -3 6 -2 10 4 10 5 0 13 -4 16 -10z m265 6 c0 -11 -33
-36 -41 -31 -16 10 -10 23 14 28 12 2 23 5 25 6 1 0 2 -1 2 -3z m-2737 -13
c-7 -2 -13 -13 -13 -24 0 -21 37 -26 69 -9 14 7 22 3 40 -20 11 -16 22 -39 24
-52 2 -17 -5 -23 -33 -29 -29 -7 -38 -4 -52 14 -15 19 -19 20 -28 7 -13 -19
-13 -37 0 -45 6 -3 10 -13 10 -21 0 -25 -20 -15 -36 20 -12 25 -27 37 -55 45
-49 15 -57 29 -22 37 48 10 51 12 46 36 -3 18 1 27 19 35 13 7 28 12 33 12 6
-1 4 -3 -2 -6z m2647 -3 c0 -5 -5 -10 -11 -10 -5 0 -7 5 -4 10 3 6 8 10 11 10
2 0 4 -4 4 -10z m495 0 c-3 -5 -10 -10 -16 -10 -5 0 -9 5 -9 10 0 6 7 10 16
10 8 0 12 -4 9 -10z m-1990 -41 c-4 -5 -1 -9 4 -9 6 0 11 -4 11 -10 0 -5 -9
-10 -19 -10 -11 0 -23 -4 -26 -10 -8 -14 -35 -13 -35 1 0 16 52 59 62 53 5 -3
6 -10 3 -15z m2175 11 c0 -5 -5 -10 -11 -10 -5 0 -7 5 -4 10 3 6 8 10 11 10 2
0 4 -4 4 -10z m240 6 c0 -3 -4 -8 -10 -11 -5 -3 -10 -1 -10 4 0 6 5 11 10 11
6 0 10 -2 10 -4z m-3170 -10 c0 -2 -8 -10 -17 -17 -16 -13 -17 -12 -4 4 13 16
21 21 21 13z m508 -16 c-7 -11 -16 -20 -20 -20 -4 0 -6 9 -5 20 1 12 8 20 19
20 16 0 16 -3 6 -20z m1701 -13 c0 -21 -1 -21 -9 -2 -12 28 -12 37 0 30 6 -3
10 -16 9 -28z m521 23 c0 -15 -58 -42 -65 -30 -3 6 0 10 8 10 8 0 17 7 21 15
6 16 36 21 36 5z m304 -6 c9 -3 16 -10 16 -15 0 -6 -9 -5 -20 1 -12 6 -20 7
-20 1 0 -5 5 -11 12 -13 17 -6 0 -28 -23 -28 -10 0 -19 -4 -19 -10 0 -5 -4
-10 -10 -10 -18 0 -10 29 10 35 11 4 17 11 14 17 -4 6 0 14 7 19 17 11 14 10
33 3z m216 -20 c0 -8 -5 -12 -10 -9 -6 4 -8 11 -5 16 9 14 15 11 15 -7z m-416
-9 c-4 -9 -1 -15 7 -15 21 0 -3 -17 -35 -24 l-28 -7 28 30 c34 35 35 36 28 16z
m-2290 -11 c3 -8 2 -12 -4 -9 -6 3 -10 10 -10 16 0 14 7 11 14 -7z m1576 -1
c0 -5 -4 -14 -9 -22 -8 -12 -12 -12 -25 -2 -9 7 -13 17 -10 22 6 11 44 12 44
2z m-1720 -13 c0 -5 -2 -10 -4 -10 -3 0 -8 5 -11 10 -3 6 -1 10 4 10 6 0 11
-4 11 -10z m1674 -22 c-3 -5 -12 -4 -20 3 -7 6 -11 15 -8 21 3 5 12 4 20 -3 7
-6 11 -15 8 -21z m-1618 6 c-3 -8 -2 -12 3 -9 14 8 25 -15 12 -28 -7 -7 -18
-7 -37 1 l-26 12 24 20 c28 24 32 24 24 4z m-329 -16 c-3 -8 -6 -5 -6 6 -1 11
2 17 5 13 3 -3 4 -12 1 -19z m1764 -1 c-10 -9 -11 -8 -5 6 3 10 9 15 12 12 3
-3 0 -11 -7 -18z m-1541 4 c0 -9 -24 -21 -43 -21 -6 0 -2 7 9 15 22 17 34 19
34 6z m2420 -1 c0 -5 -4 -10 -10 -10 -5 0 -10 5 -10 10 0 6 5 10 10 10 6 0 10
-4 10 -10z m319 -21 c13 -18 19 -29 12 -25 -6 4 -11 0 -12 -11 0 -14 -2 -13
-9 5 -6 13 -15 22 -22 20 -7 -2 -13 2 -13 7 0 6 5 9 12 7 8 -2 10 3 7 13 -10
24 0 18 25 -16z m156 21 c3 -5 -1 -10 -9 -10 -9 0 -16 5 -16 10 0 6 4 10 9 10
6 0 13 -4 16 -10z m-3305 -9 c0 -6 -4 -13 -10 -16 -5 -3 -10 1 -10 9 0 9 5 16
10 16 6 0 10 -4 10 -9z m610 -12 c0 -6 -4 -7 -10 -4 -5 3 -10 11 -10 16 0 6 5
7 10 4 6 -3 10 -11 10 -16z m180 1 c0 -5 -2 -10 -4 -10 -3 0 -8 5 -11 10 -3 6
-1 10 4 10 6 0 11 -4 11 -10z m-874 -16 c-3 -9 -6 -18 -6 -20 0 -3 -4 -3 -10
1 -11 7 -2 35 12 35 6 0 7 -7 4 -16z m3042 -6 c-3 -7 -15 -14 -29 -16 -23 -2
-23 -2 -5 13 24 18 39 20 34 3z m-2426 -23 c0 -5 -5 -11 -11 -13 -6 -2 -11 4
-11 13 0 9 5 15 11 13 6 -2 11 -8 11 -13z m2779 -3 c-7 -13 -6 -23 1 -30 9 -9
9 -12 1 -12 -16 0 -22 22 -11 43 5 9 11 17 14 17 2 0 0 -8 -5 -18z m-301 -2
c5 8 10 11 10 5 0 -21 -17 -31 -57 -34 -28 -2 -43 2 -43 9 0 7 6 10 13 7 7 -3
21 1 32 9 15 11 21 11 27 1 6 -9 10 -9 18 3z m-2340 -9 c0 -11 -39 -21 -45
-11 -2 4 -2 10 2 14 10 9 43 7 43 -3z m2146 -36 c-3 -8 -10 -15 -15 -15 -7 0
-6 10 1 26 12 26 25 16 14 -11z m318 28 c-5 -5 -12 -12 -16 -18 -4 -6 -8 -2
-8 8 0 9 7 17 17 17 9 0 12 -3 7 -7z m129 -14 c4 -16 3 -18 -9 -8 -16 13 -19
29 -5 29 5 0 11 -9 14 -21z m-2703 7 c0 -3 -4 -8 -10 -11 -5 -3 -10 -1 -10 4
0 6 5 11 10 11 6 0 10 -2 10 -4z m2344 -5 c3 -5 -5 -11 -19 -13 -24 -5 -32 2
-18 15 9 10 31 9 37 -2z m179 -4 c3 -8 1 -20 -5 -28 -8 -11 -9 -10 -4 4 3 11
0 17 -9 17 -8 0 -15 5 -15 10 0 15 27 12 33 -3z m-945 -22 c-3 -3 -19 -3 -34
1 l-29 8 25 6 c24 7 50 -4 38 -15z m1019 -3 c-18 -4 -47 -60 -41 -77 5 -11 2
-13 -10 -9 -9 3 -16 1 -16 -5 0 -21 -18 -11 -24 14 -4 14 -11 25 -17 25 -6 0
-8 -7 -4 -17 5 -14 3 -15 -6 -6 -18 18 -2 32 34 29 29 -3 35 1 51 35 15 29 21
35 31 26 9 -9 10 -13 2 -15z m-2637 -3 c0 -5 -9 -9 -20 -9 -13 0 -18 5 -14 14
6 15 34 11 34 -5z m2435 11 c3 -5 1 -10 -4 -10 -6 0 -11 5 -11 10 0 6 2 10 4
10 3 0 8 -4 11 -10z m-2735 -20 c0 -5 -4 -10 -10 -10 -5 0 -10 5 -10 10 0 6 5
10 10 10 6 0 10 -4 10 -10z m2647 4 c-3 -3 -12 -4 -19 -1 -8 3 -5 6 6 6 11 1
17 -2 13 -5z m167 -28 c-21 -15 -30 -14 -19 3 3 6 14 11 23 11 13 0 13 -2 -4
-14z m286 4 c0 -5 -2 -10 -4 -10 -3 0 -8 5 -11 10 -3 6 -1 10 4 10 6 0 11 -4
11 -10z m-2823 -6 c-3 -3 -12 -4 -19 -1 -8 3 -5 6 6 6 11 1 17 -2 13 -5z
m2693 2 c0 -2 3 -11 6 -20 3 -9 1 -16 -5 -16 -6 0 -11 6 -11 14 0 8 -6 17 -12
19 -8 3 -6 6 5 6 9 1 17 -1 17 -3z m-3130 -10 c0 -3 -4 -8 -10 -11 -5 -3 -10
-1 -10 4 0 6 5 11 10 11 6 0 10 -2 10 -4z m2941 -13 c12 -15 12 -16 -2 -11 -9
4 -22 1 -28 -5 -6 -6 -11 -7 -11 -1 0 8 20 34 26 34 1 0 8 -8 15 -17z m192
-56 c-2 -4 2 -21 11 -37 8 -17 10 -27 4 -24 -7 5 -9 0 -6 -14 4 -15 2 -19 -8
-15 -8 3 -14 1 -14 -4 0 -6 -10 -15 -22 -21 -22 -10 -21 -11 10 -11 18 -1 31
-5 28 -9 -2 -4 -24 -6 -47 -4 l-43 4 32 27 c29 24 46 51 22 36 -5 -3 -10 1
-10 9 0 9 9 16 20 16 12 0 20 7 20 16 0 9 -9 18 -20 21 -20 5 -28 23 -10 23 5
0 7 7 4 15 -4 8 -10 12 -15 9 -5 -3 -6 2 -2 11 5 14 9 12 28 -12 13 -15 21
-31 18 -36z m272 53 c3 -5 1 -10 -4 -10 -6 0 -11 5 -11 10 0 6 2 10 4 10 3 0
8 -4 11 -10z m-2915 -4 c0 -11 -19 -15 -25 -6 -3 5 1 10 9 10 9 0 16 -2 16 -4z
m-185 -15 c3 -5 1 -12 -5 -16 -5 -3 -10 1 -10 9 0 18 6 21 15 7z m2555 -11 c0
-5 -5 -12 -12 -16 -7 -4 -8 -3 -4 4 4 7 2 12 -3 12 -6 0 -11 4 -11 10 0 5 7 7
15 4 8 -4 15 -10 15 -14z m573 -24 c5 -34 4 -38 -8 -25 -8 8 -11 25 -8 42 7
34 9 32 16 -17z m-2876 8 c-3 -3 -12 -4 -19 -1 -8 3 -5 6 6 6 11 1 17 -2 13
-5z m2373 -4 c0 -5 -5 -10 -11 -10 -5 0 -7 5 -4 10 3 6 8 10 11 10 2 0 4 -4 4
-10z m63 3 c3 -5 1 -17 -4 -28 -4 -11 -8 -14 -8 -7 -1 6 -8 12 -16 12 -13 0
-14 3 -3 15 15 16 25 19 31 8z m88 -34 c-2 -69 -5 -74 -40 -70 -8 2 -10 -2 -5
-10 4 -7 3 -10 -4 -6 -5 4 -9 15 -7 25 1 9 0 11 -2 5 -7 -21 -20 -15 -25 12
-4 17 -1 25 8 25 8 0 16 11 20 25 9 36 19 22 15 -21 -1 -18 2 -34 7 -34 5 0 7
11 4 25 -2 14 0 25 6 25 6 0 8 10 5 23 -5 17 -3 19 7 11 6 -7 12 -23 11 -35z
m149 27 c0 -8 -4 -18 -10 -21 -5 -3 -10 3 -10 14 0 12 5 21 10 21 6 0 10 -6
10 -14z m-453 -12 c-3 -3 -12 -4 -19 -1 -8 3 -5 6 6 6 11 1 17 -2 13 -5z
m-2846 -29 c-45 -26 -61 -30 -61 -17 0 11 60 41 85 41 13 1 5 -8 -24 -24z
m387 0 c-3 -3 -9 2 -12 12 -6 14 -5 15 5 6 7 -7 10 -15 7 -18z m2552 -14 c0
-6 -4 -11 -10 -11 -5 0 -10 4 -10 9 0 5 -3 18 -7 28 -6 17 -6 17 10 1 9 -9 17
-21 17 -27z m53 24 c-3 -9 -8 -14 -10 -11 -3 3 -2 9 2 15 9 16 15 13 8 -4z
m-2607 -62 c-8 -20 -12 -16 -20 27 -6 34 -6 35 10 12 9 -13 13 -30 10 -39z
m2466 39 c-7 -2 -9 -9 -6 -14 4 -7 2 -8 -4 -4 -6 4 -9 13 -6 21 4 8 11 12 17
8 8 -5 7 -8 -1 -11z m448 8 c0 -5 -7 -10 -16 -10 -11 0 -15 -6 -11 -20 3 -11
1 -18 -4 -14 -13 8 -11 42 4 47 20 9 27 8 27 -3z m196 -7 c-10 -10 -56 -11
-50 -1 3 5 12 7 20 4 8 -3 14 -1 14 5 0 6 5 7 11 4 6 -4 8 -9 5 -12z m-3571
-13 c3 -5 1 -10 -4 -10 -6 0 -11 5 -11 10 0 6 2 10 4 10 3 0 8 -4 11 -10z
m3485 0 c-8 -5 -19 -10 -25 -10 -5 0 -3 5 5 10 8 5 20 10 25 10 6 0 3 -5 -5
-10z m145 0 c3 -5 1 -10 -4 -10 -6 0 -11 5 -11 10 0 6 2 10 4 10 3 0 8 -4 11
-10z m-2835 -20 c0 -11 -4 -20 -10 -20 -5 0 -10 9 -10 20 0 11 5 20 10 20 6 0
10 -9 10 -20z m2185 -8 c-6 -7 -34 11 -29 19 3 5 11 3 19 -4 7 -6 12 -13 10
-15z m-3447 -17 l4 -30 -26 24 c-27 25 -26 44 2 39 10 -2 18 -15 20 -33z m405
15 c3 -10 -1 -24 -7 -29 -10 -8 -11 -3 -8 19 5 35 8 37 15 10z m197 11 c0 -6
-4 -13 -10 -16 -5 -3 -10 1 -10 9 0 9 5 16 10 16 6 0 10 -4 10 -9z m2950 -12
c0 -5 -4 -9 -8 -9 -5 0 -9 7 -9 15 0 8 4 12 9 9 4 -3 8 -9 8 -15z m463 14 c-7
-2 -13 -13 -13 -23 0 -31 -15 -30 -16 1 -1 23 3 29 20 28 12 0 15 -3 9 -6z
m-3573 -7 c0 -3 -4 -8 -10 -11 -5 -3 -10 -1 -10 4 0 6 5 11 10 11 6 0 10 -2
10 -4z m1355 -6 c-3 -5 -11 -10 -16 -10 -6 0 -7 5 -4 10 3 6 11 10 16 10 6 0
7 -4 4 -10z m2325 -19 c0 -9 4 -21 9 -26 5 -6 1 -22 -9 -38 l-17 -28 -6 52
c-4 29 -4 56 -1 61 8 13 24 -1 24 -21z m-50 15 c0 -3 -4 -8 -10 -11 -5 -3 -10
-1 -10 4 0 6 5 11 10 11 6 0 10 -2 10 -4z m-253 -28 c-3 -8 -6 -5 -6 6 -1 11
2 17 5 13 3 -3 4 -12 1 -19z m-3477 2 c0 -5 -5 -10 -11 -10 -5 0 -7 5 -4 10 3
6 8 10 11 10 2 0 4 -4 4 -10z m3256 -4 c3 -8 13 -12 22 -9 15 4 15 3 2 -6 -24
-17 -46 -13 -46 9 0 23 14 27 22 6z m-1756 0 c0 -3 -4 -8 -10 -11 -5 -3 -10
-1 -10 4 0 6 5 11 10 11 6 0 10 -2 10 -4z m2010 -10 c0 -3 -4 -8 -10 -11 -5
-3 -10 -1 -10 4 0 6 5 11 10 11 6 0 10 -2 10 -4z m185 -26 c-10 -11 -20 -18
-23 -16 -5 6 21 35 32 36 5 0 1 -9 -9 -20z m-3691 -2 c-3 -4 -14 -8 -26 -8
-11 0 -31 -9 -46 -20 -18 -15 -29 -17 -36 -10 -12 12 11 33 26 24 4 -3 8 2 8
10 0 11 10 15 39 13 22 0 37 -5 35 -9z m1526 -9 c0 -5 -4 -9 -10 -9 -5 0 -10
5 -10 11 0 5 -4 7 -10 4 -5 -3 -10 -15 -10 -26 0 -27 -17 -24 -22 5 -4 20 0
26 16 28 26 5 46 -1 46 -13z m120 6 c0 -8 -4 -15 -10 -15 -5 0 -7 7 -4 15 4 8
8 15 10 15 2 0 4 -7 4 -15z m1690 -19 c-7 -10 -8 -16 0 -21 13 -8 13 -35 -1
-35 -5 0 -8 4 -5 9 6 9 -12 8 -101 -2 -24 -3 -45 -1 -48 3 -3 5 3 9 12 9 74 1
141 29 143 61 1 11 3 11 7 2 3 -7 0 -19 -7 -26z m58 4 c13 -1 11 -4 -6 -13
-12 -7 -19 -16 -16 -20 4 -4 2 -7 -4 -7 -14 0 -15 14 -5 50 6 19 8 21 11 8 2
-10 11 -18 20 -18z m-124 11 c3 -5 -1 -14 -9 -21 -13 -10 -15 -9 -15 9 0 21
14 28 24 12z m-1886 -23 c14 -14 16 -42 2 -33 -14 9 -32 45 -22 45 4 0 13 -5
20 -12z m188 4 c6 -4 15 -18 19 -32 8 -25 7 -25 -13 -6 -12 10 -19 23 -16 28
4 6 -3 8 -17 3 -19 -5 -21 -4 -9 4 18 13 22 13 36 3z m2225 -39 c-9 -16 -10
-15 -11 8 0 14 3 29 8 33 12 12 14 -22 3 -41z m-231 27 c0 -5 -5 -10 -11 -10
-5 0 -7 5 -4 10 3 6 8 10 11 10 2 0 4 -4 4 -10z m-3704 -16 c-3 -9 -6 -18 -6
-20 0 -3 -4 -2 -10 1 -5 3 -10 -1 -10 -9 0 -9 -4 -16 -10 -16 -15 0 -12 18 8
39 21 24 36 26 28 5z m1829 7 c3 -5 1 -12 -5 -16 -5 -3 -10 1 -10 9 0 18 6 21
15 7z m1798 -6 c4 -8 2 -17 -3 -20 -6 -4 -10 3 -10 14 0 25 6 27 13 6z m271
-10 c-4 -8 -10 -15 -15 -15 -4 0 -6 7 -3 15 4 8 10 15 15 15 4 0 6 -7 3 -15z
m76 5 c0 -5 -4 -10 -10 -10 -5 0 -10 5 -10 10 0 6 5 10 10 10 6 0 10 -4 10
-10z m-2520 -10 c0 -5 -2 -10 -4 -10 -3 0 -8 5 -11 10 -3 6 -1 10 4 10 6 0 11
-4 11 -10z m-1403 -56 c-4 -4 -13 -1 -22 6 -8 7 -15 9 -15 6 0 -4 -4 -4 -10
-1 -6 4 -5 11 3 20 10 11 15 11 31 -5 11 -11 17 -22 13 -26z m1511 30 c15 -4
33 -11 39 -17 14 -11 8 -27 -10 -27 -8 0 -8 3 1 9 10 6 5 11 -19 20 -22 8 -36
8 -43 1 -15 -15 -22 -12 -22 10 0 13 5 19 14 15 8 -3 26 -8 40 -11z m1877 -2
c-3 -3 -11 0 -18 7 -9 10 -8 11 6 5 10 -3 15 -9 12 -12z m565 14 c0 -11 -13
-36 -19 -36 -4 0 -7 9 -7 20 0 11 6 20 13 20 7 0 13 -2 13 -4z m-548 -32 c24
5 28 2 28 -17 0 -12 -4 -17 -8 -12 -4 6 -20 11 -37 11 -27 2 -28 1 -9 -8 24
-11 51 -54 41 -64 -10 -10 -57 25 -57 42 0 8 -4 12 -10 9 -6 -3 -7 1 -4 9 4
11 0 16 -15 16 -12 0 -21 5 -21 11 0 6 7 9 15 5 8 -3 14 -2 14 2 -3 20 3 22
18 7 11 -11 26 -15 45 -11z m28 22 c0 -2 -7 -7 -16 -10 -8 -3 -12 -2 -9 4 6
10 25 14 25 6z m134 -11 c-4 -8 -8 -15 -10 -15 -2 0 -4 7 -4 15 0 8 4 15 10
15 5 0 7 -7 4 -15z m167 -27 c-11 -11 -13 -10 -7 0 4 7 2 21 -5 30 -12 15 -11
15 6 0 16 -15 17 -20 6 -30z m-2291 22 c0 -5 -2 -10 -4 -10 -3 0 -8 5 -11 10
-3 6 -1 10 4 10 6 0 11 -4 11 -10z m247 -20 c2 -14 -2 -18 -12 -14 -17 7 -20
24 -4 24 5 0 7 6 3 13 -4 6 -3 9 1 4 5 -4 10 -16 12 -27z m860 10 c-3 -11 0
-20 6 -20 6 0 8 -3 5 -6 -4 -3 -16 0 -29 7 -22 11 -22 12 -4 25 25 19 28 18
22 -6z m715 -2 c-17 -17 -24 -20 -34 -10 -9 9 -7 12 9 12 12 0 25 5 28 10 3 6
9 10 13 10 3 0 -4 -10 -16 -22z m626 -8 c4 -21 2 -22 -12 -7 -19 19 -21 40 -3
35 6 -3 14 -15 15 -28z m108 -54 c1 -20 -1 -24 -7 -15 -5 8 -6 22 -3 33 4 13
2 16 -6 11 -15 -9 -30 13 -23 32 8 21 37 -25 39 -61z m-1587 44 c12 6 21 7 21
1 0 -23 -55 -27 -64 -5 -5 14 -4 15 8 5 11 -9 20 -10 35 -1z m-889 -10 c11 -7
11 -10 2 -10 -7 0 -10 -4 -7 -10 3 -5 -3 -10 -14 -10 -25 0 -38 20 -20 31 18
11 21 11 39 -1z m1805 0 c3 -5 2 -10 -4 -10 -5 0 -13 5 -16 10 -3 6 -2 10 4
10 5 0 13 -4 16 -10z m225 6 c0 -3 -4 -8 -10 -11 -5 -3 -10 -1 -10 4 0 6 5 11
10 11 6 0 10 -2 10 -4z m290 -16 c0 -11 -3 -20 -7 -20 -5 0 -9 -27 -10 -60 -3
-65 11 -81 21 -25 4 19 12 37 18 41 14 9 4 -35 -22 -91 -10 -22 -21 -61 -25
-87 -4 -26 -14 -53 -21 -59 -12 -10 -13 -3 -7 47 4 32 6 67 5 77 -9 81 14 197
40 197 4 0 8 -9 8 -20z m-3095 -29 c-10 -10 -34 10 -29 24 6 14 8 13 19 -2 8
-10 12 -20 10 -22z m2415 15 c-14 -13 -29 -20 -34 -16 -12 12 2 30 19 23 8 -3
15 0 15 6 0 6 6 11 12 11 7 0 1 -11 -12 -24z m-1598 -17 c-18 -16 -37 -27 -42
-24 -10 6 18 39 41 48 32 12 32 5 1 -24z m118 -10 c0 -12 8 -23 18 -26 21 -5
45 -40 37 -53 -10 -16 -48 -12 -42 4 8 21 -14 44 -57 58 -46 15 -60 38 -22 34
17 -2 26 2 26 11 0 11 4 11 20 3 11 -6 20 -20 20 -31z m900 31 c0 -5 -6 -10
-14 -10 -8 0 -21 -3 -30 -6 -9 -3 -16 -1 -16 4 0 9 9 13 53 21 4 0 7 -3 7 -9z
m733 -30 c8 9 8 11 0 6 -6 -3 -14 -2 -17 3 -12 19 24 19 38 -1 8 -11 19 -17
25 -13 6 3 11 1 11 -4 0 -6 9 -11 19 -11 24 0 36 -16 20 -26 -6 -3 -15 0 -20
7 -7 11 -9 10 -9 -3 0 -10 5 -18 10 -18 6 0 10 -5 10 -10 0 -6 -13 -4 -30 5
-16 9 -30 22 -30 30 0 8 -5 15 -10 15 -7 0 -7 -7 1 -21 14 -27 -6 -54 -21 -29
-6 9 -10 10 -10 3 0 -18 19 -26 34 -14 22 18 38 -30 19 -54 -12 -15 -14 -16
-10 -3 7 19 -17 43 -33 33 -5 -3 -10 -14 -10 -23 -1 -10 -9 -3 -20 18 -22 40
-26 62 -7 36 13 -18 14 -18 14 0 0 11 -9 26 -19 36 -13 11 -15 18 -8 23 8 5 6
15 -6 33 -17 27 -16 27 15 -2 26 -25 33 -28 44 -16z m145 13 c-5 -25 -28 -28
-28 -4 0 12 6 21 16 21 9 0 14 -7 12 -17z m85 2 c-3 -9 -8 -14 -10 -11 -3 3
-2 9 2 15 9 16 15 13 8 -4z m357 11 c0 -2 -7 -9 -15 -16 -13 -11 -14 -10 -9 4
5 14 24 23 24 12z m-3840 -27 c0 -5 -6 -9 -13 -9 -8 0 -14 6 -14 14 0 8 6 12
14 9 7 -3 13 -9 13 -14z m576 -3 c-4 -16 0 -30 10 -40 20 -20 10 -20 -20 -1
-21 14 -22 19 -12 40 14 32 30 32 22 1z m1789 4 c-19 -12 -31 -16 -34 -9 -4
14 18 29 44 29 17 0 15 -4 -10 -20z m1271 -7 c-6 -28 -22 -50 -31 -41 -3 3 2
14 12 24 10 9 17 19 16 21 -5 6 -3 23 2 23 3 0 3 -12 1 -27z m-3139 -15 c-3
-7 -5 -2 -5 12 0 14 2 19 5 13 2 -7 2 -19 0 -25z m943 11 c0 -6 -4 -7 -10 -4
-5 3 -10 11 -10 16 0 6 5 7 10 4 6 -3 10 -11 10 -16z m-1622 -1 c7 -7 11 -21
11 -32 -1 -19 -2 -19 -6 -2 -4 15 -7 16 -15 5 -7 -11 -8 -9 -4 5 4 11 1 23 -6
28 -7 4 -8 8 -2 8 5 0 15 -5 22 -12z m91 -22 c-13 -15 -11 -26 5 -26 8 0 18
-5 22 -12 5 -8 2 -9 -9 -5 -10 3 -17 2 -17 -3 0 -6 -5 -10 -11 -10 -5 0 -8 4
-5 9 11 16 -18 19 -36 3 -12 -10 -18 -11 -18 -4 0 7 4 12 9 12 5 0 16 16 25
35 14 29 19 33 31 22 8 -7 10 -16 4 -21z m781 23 c0 21 21 11 30 -15 11 -29
-1 -54 -27 -54 -10 0 -12 6 -8 20 4 13 1 22 -9 26 -9 3 -16 13 -16 21 0 13 3
13 15 3 10 -9 15 -9 15 -1z m1630 7 c0 -3 -4 -8 -10 -11 -5 -3 -10 -1 -10 4 0
6 5 11 10 11 6 0 10 -2 10 -4z m625 -6 c3 -5 -1 -10 -9 -10 -9 0 -16 5 -16 10
0 6 4 10 9 10 6 0 13 -4 16 -10z m922 -16 c-9 -9 -28 6 -21 18 4 6 10 6 17 -1
6 -6 8 -13 4 -17z m-804 -74 c4 -36 3 -58 0 -50 -3 8 -12 18 -18 22 -10 6 -11
19 -3 50 6 29 6 44 -1 46 -6 2 -11 9 -11 15 0 7 6 5 14 -3 7 -8 16 -44 19 -80z
m-3044 20 c0 -23 -1 -23 -9 -5 -5 11 -9 29 -9 40 -1 17 1 17 9 5 5 -8 9 -26 9
-40z m1541 29 c0 -6 -4 -7 -10 -4 -5 3 -10 11 -10 16 0 6 5 7 10 4 6 -3 10
-11 10 -16z m840 16 c0 -2 -11 -16 -25 -30 -30 -29 -35 -30 -35 -11 0 7 10 21
23 29 22 16 37 21 37 12z m545 -5 c3 -5 1 -10 -4 -10 -6 0 -11 5 -11 10 0 6 2
10 4 10 3 0 8 -4 11 -10z m950 0 c-3 -5 -14 -10 -23 -9 -14 0 -13 2 3 9 27 11
27 11 20 0z m-2415 -4 c0 -3 -4 -8 -10 -11 -5 -3 -10 -1 -10 4 0 6 5 11 10 11
6 0 10 -2 10 -4z m-854 -23 c0 -10 4 -18 11 -18 18 0 28 -15 11 -15 -20 0 -42
26 -33 40 9 15 13 12 11 -7z m987 4 c-2 -4 -3 -12 -3 -18 0 -8 -4 -8 -15 1 -8
6 -19 9 -24 5 -7 -3 -8 0 -5 9 4 9 15 14 27 12 12 -2 21 -6 20 -9z m-1803 -12
c0 -12 -19 -12 -23 0 -4 9 -1 12 9 8 7 -3 14 -7 14 -8z m270 -6 c0 -5 -4 -9
-10 -9 -5 0 -10 7 -10 16 0 8 5 12 10 9 6 -3 10 -10 10 -16z m484 6 c3 -8 1
-15 -4 -15 -6 0 -10 5 -10 11 0 6 -7 8 -16 5 -8 -3 -12 -2 -9 4 9 15 32 12 39
-5z m2313 9 c-3 -3 -12 -4 -19 -1 -8 3 -5 6 6 6 11 1 17 -2 13 -5z m309 -11
c3 -10 9 -25 14 -35 9 -16 3 -25 -25 -41 -11 -6 -13 38 -2 49 3 4 2 15 -4 25
-7 13 -6 19 1 19 6 0 13 -8 16 -17z m-717 -20 c-10 -11 -14 -11 -20 -1 -10 17
-2 28 17 21 11 -4 12 -8 3 -20z m-984 -4 c-8 -12 -35 -12 -35 0 0 11 22 20 33
14 4 -2 5 -9 2 -14z m1391 10 c3 -6 -1 -18 -10 -27 -13 -13 -16 -13 -16 -2 0
10 -4 8 -14 -5 -8 -11 -19 -16 -30 -12 -17 7 -22 36 -6 38 6 1 14 2 19 3 5 0
13 4 17 9 11 10 32 9 40 -4z m1006 3 c20 -8 12 -24 -19 -41 -30 -15 -33 -14
-33 12 0 36 14 44 52 29z m-2307 -19 c10 -24 14 -98 5 -83 -4 6 -10 11 -14 11
-20 -2 -33 14 -32 37 3 48 27 69 41 35z m1191 -9 c-4 -9 -9 -15 -11 -12 -3 3
-3 13 1 22 4 9 9 15 11 12 3 -3 3 -13 -1 -22z m228 11 c3 -8 1 -15 -4 -15 -6
0 -10 7 -10 15 0 8 2 15 4 15 2 0 6 -7 10 -15z m629 8 c-7 -2 -13 -14 -14 -26
0 -21 -1 -21 -9 -2 -13 31 -12 35 13 34 12 0 16 -3 10 -6z m-3683 -28 c0 -7
-4 -15 -9 -17 -5 -2 -4 -14 1 -28 14 -35 17 -79 7 -86 -5 -3 -9 -10 -9 -15 0
-6 4 -7 10 -4 6 3 7 -1 4 -9 -3 -9 -10 -16 -14 -16 -16 0 -22 22 -11 33 17 17
13 31 -4 17 -13 -10 -15 -9 -15 9 0 11 -4 21 -8 21 -5 0 -16 6 -25 13 -15 10
-14 12 14 11 17 0 35 -7 40 -15 7 -11 9 -8 9 9 0 13 -4 20 -10 17 -11 -7 -13
9 -4 54 6 29 24 34 24 6z m207 19 c-3 -3 -12 -4 -19 -1 -8 3 -5 6 6 6 11 1 17
-2 13 -5z m447 -16 c19 -27 21 -42 4 -32 -7 5 -9 2 -5 -8 4 -12 1 -14 -14 -11
-11 3 -22 9 -25 14 -3 5 2 6 10 3 18 -7 21 9 6 37 -15 27 5 25 24 -3z m-700
-4 c3 -8 2 -12 -4 -9 -6 3 -10 10 -10 16 0 14 7 11 14 -7z m1583 -16 c-3 -8
-6 -5 -6 6 -1 11 2 17 5 13 3 -3 4 -12 1 -19z m167 -29 c-13 -15 -19 -17 -26
-7 -14 22 -9 38 15 47 29 11 36 -13 11 -40z m683 31 c3 -11 10 -20 15 -20 6 0
8 9 5 20 -3 13 0 20 9 20 20 0 17 -17 -6 -40 -17 -17 -23 -18 -34 -8 -8 7 -10
15 -5 16 5 2 9 8 9 13 0 6 -4 7 -10 4 -5 -3 -10 -1 -10 4 0 19 22 12 27 -9z
m793 -1 c0 -5 -4 -9 -10 -9 -5 0 -10 7 -10 16 0 8 5 12 10 9 6 -3 10 -10 10
-16z m-2628 -11 c-7 -7 -12 -8 -12 -2 0 14 12 26 19 19 2 -3 -1 -11 -7 -17z
m176 -3 c-3 -3 -9 2 -12 12 -6 14 -5 15 5 6 7 -7 10 -15 7 -18z m2329 -17 c8
-27 6 -36 -9 -52 -20 -22 -23 -15 -7 16 8 14 8 23 0 31 -13 13 -15 37 -3 37 5
0 13 -15 19 -32z m227 1 c-3 -5 1 -9 8 -10 10 0 10 -2 0 -6 -6 -2 -10 -9 -6
-14 3 -5 0 -9 -5 -9 -6 0 -11 7 -11 15 0 9 -7 18 -15 21 -12 5 -13 9 -4 20 9
11 15 11 25 3 8 -6 11 -15 8 -20z m-314 10 c0 -8 5 -8 15 1 12 10 16 9 21 -4
3 -9 12 -16 20 -16 8 0 11 -6 7 -17 -4 -11 -8 -12 -11 -5 -2 7 -13 12 -25 12
-18 0 -19 -2 -7 -10 10 -7 11 -10 2 -10 -7 0 -15 7 -18 15 -4 8 -12 15 -20 15
-8 0 -11 6 -8 15 7 17 24 20 24 4z m355 1 c3 -5 1 -10 -4 -10 -6 0 -11 5 -11
10 0 6 2 10 4 10 3 0 8 -4 11 -10z m323 -10 c-7 -10 -14 -17 -17 -15 -4 4 18
35 25 35 2 0 -1 -9 -8 -20z m-3696 -12 c-7 -7 -12 -8 -12 -2 0 14 12 26 19 19
2 -3 -1 -11 -7 -17z m3163 12 c3 -5 1 -10 -4 -10 -6 0 -11 5 -11 10 0 6 2 10
4 10 3 0 8 -4 11 -10z m1075 0 c0 -5 -6 -10 -14 -10 -8 0 -18 5 -21 10 -3 6 3
10 14 10 12 0 21 -4 21 -10z m-3513 -22 c-3 -8 -6 -5 -6 6 -1 11 2 17 5 13 3
-3 4 -12 1 -19z m935 -5 c23 -22 30 -24 43 -13 11 10 19 10 27 2 8 -8 2 -16
-19 -29 -16 -10 -28 -23 -26 -30 3 -7 -8 -15 -24 -18 -15 -4 -38 -11 -51 -16
-18 -7 -28 -4 -49 15 l-26 24 23 12 c20 11 25 10 35 -4 7 -9 18 -16 26 -16 8
0 6 5 -6 13 -10 8 -15 19 -11 25 8 14 36 16 36 3 0 -5 7 -11 15 -15 9 -3 15 0
15 8 0 8 -11 17 -25 20 -13 3 -37 11 -52 18 l-28 11 30 7 c17 4 32 8 34 9 3 0
17 -11 33 -26z m833 17 c3 -6 -4 -10 -17 -10 -18 0 -20 2 -8 10 19 12 18 12
25 0z m795 -70 c0 -15 -41 -23 -54 -10 -8 10 -8 11 2 6 14 -9 16 3 2 24 -8 13
-11 11 -16 -7 -4 -13 -10 -21 -14 -18 -14 8 14 55 29 50 11 -4 11 -2 3 8 -7 8
-9 17 -6 20 7 6 54 -58 54 -73z m724 33 c18 -10 17 -10 -2 -15 -14 -4 -24 1
-33 18 -7 13 -16 24 -21 24 -4 0 -8 5 -8 12 0 6 10 2 23 -9 12 -11 30 -25 41
-30z m281 37 c3 -6 -1 -7 -9 -4 -18 7 -21 14 -7 14 6 0 13 -4 16 -10z m-2288
-32 c-3 -8 -6 -5 -6 6 -1 11 2 17 5 13 3 -3 4 -12 1 -19z m1001 10 c-2 -6 7
-14 19 -17 l22 -6 -24 -12 c-20 -9 -25 -8 -25 3 0 8 -5 14 -11 14 -8 0 -8 5 1
15 15 18 21 19 18 3z m302 -16 c0 -15 -2 -15 -10 -2 -13 20 -13 33 0 25 6 -3
10 -14 10 -23z m-3203 -1 c-1 -11 -6 -17 -14 -14 -10 4 -11 9 -2 19 15 19 18
18 16 -5z m1445 -3 c-7 -7 -12 -8 -12 -2 0 14 12 26 19 19 2 -3 -1 -11 -7 -17z
m1403 13 c3 -5 2 -12 -3 -15 -5 -3 -9 1 -9 9 0 17 3 19 12 6z m717 -13 c-7 -7
-12 -8 -12 -2 0 6 3 14 7 17 3 4 9 5 12 2 2 -3 -1 -11 -7 -17z m288 2 c0 -11
-1 -21 -2 -22 -1 -2 4 -13 11 -26 6 -12 8 -22 4 -21 -4 1 -16 -1 -27 -6 -33
-15 -45 46 -12 67 6 4 7 8 3 8 -11 0 2 20 14 20 5 0 9 -9 9 -20z m-3226 -16
c3 -8 2 -12 -4 -9 -6 3 -10 10 -10 16 0 14 7 11 14 -7z m-750 -10 c3 -8 2 -12
-4 -9 -6 3 -10 10 -10 16 0 14 7 11 14 -7z m2383 -6 c-3 -8 -6 -5 -6 6 -1 11
2 17 5 13 3 -3 4 -12 1 -19z m1277 7 c-4 -8 -11 -15 -16 -15 -6 0 -8 -7 -4
-15 3 -9 0 -15 -9 -15 -8 0 -13 -6 -11 -12 1 -7 1 -10 -1 -6 -2 4 -11 4 -20 1
-9 -4 -6 4 9 20 12 14 29 32 36 41 16 20 23 21 16 1z m-3414 -5 c0 -5 -5 -10
-11 -10 -5 0 -7 5 -4 10 3 6 8 10 11 10 2 0 4 -4 4 -10z m2755 0 c3 -5 -1 -10
-10 -10 -9 0 -13 5 -10 10 3 6 8 10 10 10 2 0 7 -4 10 -10z m175 -34 c0 -12
-5 -7 -19 24 -11 24 -11 24 3 6 9 -11 16 -24 16 -30z m-670 19 c0 -8 -10 -19
-22 -26 -18 -10 -20 -9 -15 6 4 9 7 21 7 26 0 5 7 9 15 9 8 0 15 -7 15 -15z
m577 -2 c-4 -3 0 -15 10 -25 15 -17 15 -18 -1 -18 -9 0 -20 9 -24 21 -8 20 -9
20 -23 3 -8 -11 -9 -15 -1 -10 7 4 12 2 12 -4 0 -8 -9 -10 -27 -5 -16 4 -37 8
-48 7 l-20 0 20 8 c66 25 115 37 102 23z m-3117 -12 c0 -6 -4 -13 -10 -16 -5
-3 -10 1 -10 9 0 9 5 16 10 16 6 0 10 -4 10 -9z m40 -1 c0 -5 -4 -10 -10 -10
-5 0 -10 5 -10 10 0 6 5 10 10 10 6 0 10 -4 10 -10z m335 -29 c-3 -6 -11 -8
-17 -5 -6 4 -5 9 3 15 16 10 23 4 14 -10z m-348 -13 c-3 -8 -6 -5 -6 6 -1 11
2 17 5 13 3 -3 4 -12 1 -19z m50 7 c9 -24 -1 -27 -15 -5 -8 13 -8 20 -2 20 6
0 13 -7 17 -15z m2428 -3 c-3 -3 -11 0 -18 7 -9 10 -8 11 6 5 10 -3 15 -9 12
-12z m742 -2 c4 -12 3 -13 -5 -1 -5 7 -14 11 -19 8 -5 -3 -15 -2 -23 3 -11 7
-6 9 14 7 16 -1 31 -9 33 -17z m793 12 c0 -5 -6 -9 -12 -9 -7 0 -23 -3 -35 -7
-14 -4 -23 -3 -23 3 0 5 12 12 28 14 15 2 30 5 35 6 4 0 7 -3 7 -7z m-4037 -9
c-21 -8 -15 -23 10 -23 16 0 26 -9 34 -30 10 -28 10 -29 -9 -19 -11 6 -26 8
-34 5 -8 -3 -14 -1 -14 4 0 6 5 10 10 10 6 0 10 5 10 10 0 6 -7 10 -15 10 -8
0 -15 6 -15 13 0 17 10 27 24 26 6 0 5 -3 -1 -6z m767 -35 c0 -23 -3 -39 -6
-35 -10 10 -13 77 -3 77 5 0 9 -19 9 -42z m1905 32 c3 -5 1 -10 -4 -10 -6 0
-11 5 -11 10 0 6 2 10 4 10 3 0 8 -4 11 -10z m1236 -24 c1 -11 0 -31 0 -43 -1
-11 3 -24 8 -28 13 -8 14 -35 2 -35 -5 0 -11 8 -13 18 -3 12 -6 9 -9 -10 -5
-21 -3 -25 10 -21 9 2 4 -3 -11 -12 -16 -8 -28 -18 -28 -21 0 -3 6 -2 13 2 7
5 5 -3 -5 -16 -9 -14 -23 -24 -32 -24 -9 1 -16 -6 -16 -17 0 -10 -4 -21 -10
-24 -5 -3 -10 -11 -10 -18 0 -6 7 -1 16 11 8 12 20 22 26 22 7 0 6 -5 -1 -14
-10 -12 -19 -69 -21 -135 0 -8 -7 -11 -21 -8 -12 3 -22 0 -26 -9 -3 -8 -10
-11 -17 -7 -6 3 -3 -3 7 -14 21 -24 21 -33 3 -68 -9 -17 -16 -22 -19 -13 -4 9
-6 7 -6 -4 -1 -10 6 -18 15 -18 8 0 13 -4 9 -10 -3 -5 -12 -7 -20 -3 -8 3 -15
0 -15 -6 0 -6 8 -11 18 -12 10 0 12 -3 4 -6 -6 -2 -10 -9 -6 -14 3 -5 2 -9 -3
-9 -14 1 -43 74 -32 80 5 4 9 11 7 16 -1 5 3 19 10 32 7 12 10 27 6 33 -3 6 0
24 7 40 9 23 14 27 21 17 5 -8 6 -1 1 17 -3 17 -6 38 -5 47 0 12 -5 15 -16 11
-16 -5 -16 -5 0 8 10 8 19 28 22 44 2 17 7 48 11 70 3 22 19 63 35 90 28 48
29 49 27 18 -1 -17 -5 -29 -9 -27 -10 7 -25 -26 -32 -71 l-7 -40 15 38 c8 21
22 47 32 59 11 11 19 36 20 57 0 21 4 43 8 49 10 17 36 3 37 -22z m-914 18
c-3 -3 -12 -4 -19 -1 -8 3 -5 6 6 6 11 1 17 -2 13 -5z m58 -12 c-3 -3 -11 0
-18 7 -9 10 -8 11 6 5 10 -3 15 -9 12 -12z m575 4 c0 -3 -4 -8 -10 -11 -5 -3
-10 -1 -10 4 0 6 5 11 10 11 6 0 10 -2 10 -4z m-3262 -18 c19 -19 14 -29 -8
-16 -20 13 -27 28 -12 28 4 0 13 -5 20 -12z m1494 5 c-8 -3 -5 -10 10 -23 18
-14 20 -21 11 -31 -6 -6 -9 -19 -6 -28 5 -13 3 -14 -7 -4 -10 9 -10 15 -1 26
9 12 6 18 -15 32 -21 13 -24 19 -13 26 8 5 19 8 24 8 6 0 4 -3 -3 -6z m1551
-7 c4 -10 1 -13 -8 -9 -8 3 -12 9 -9 14 7 12 11 11 17 -5z m-2213 -11 c7 -9 8
-15 2 -15 -5 0 -12 7 -16 15 -3 8 -4 15 -2 15 2 0 9 -7 16 -15z m1523 -15 c-7
-28 -13 -25 -13 6 0 14 4 23 9 20 5 -3 7 -15 4 -26z m652 11 c-3 -6 -11 -11
-17 -11 -6 0 -6 6 2 15 14 17 26 13 15 -4z m-3424 -14 c-10 -9 -11 -8 -5 6 3
10 9 15 12 12 3 -3 0 -11 -7 -18z m336 0 c-6 -19 -23 -18 -23 2 0 11 5 17 14
14 7 -3 11 -10 9 -16z m1507 -19 c1 -23 -1 -25 -21 -15 -18 8 -20 13 -12 24
14 16 5 17 -24 2 -22 -12 -22 -12 -4 9 25 27 60 16 61 -20z m1066 26 c0 -2
-12 -4 -27 -4 -21 0 -24 3 -14 9 13 8 41 5 41 -5z m790 12 c0 -3 -4 -8 -10
-11 -5 -3 -10 -1 -10 4 0 6 5 11 10 11 6 0 10 -2 10 -4z m-670 -10 c0 -3 -4
-8 -10 -11 -5 -3 -10 -1 -10 4 0 6 5 11 10 11 6 0 10 -2 10 -4z m-326 -21 c-4
-8 -11 -12 -16 -9 -6 4 -5 10 3 15 19 12 19 11 13 -6z m291 5 c3 -5 1 -10 -4
-10 -6 0 -11 5 -11 10 0 6 2 10 4 10 3 0 8 -4 11 -10z m395 -1 c0 -5 -4 -7
-10 -4 -5 3 -10 1 -10 -6 0 -7 -3 -10 -6 -6 -8 7 4 27 17 27 5 0 9 -5 9 -11z
m274 0 c-3 -6 -15 -9 -25 -6 -11 3 -19 2 -19 -3 0 -4 -12 -5 -27 -2 l-28 6 30
7 c49 11 77 10 69 -2z m-1022 -21 c-7 -7 -12 -8 -12 -2 0 6 3 14 7 17 3 4 9 5
12 2 2 -3 -1 -11 -7 -17z m-2432 -20 c-12 -11 -24 -17 -27 -14 -9 9 28 46 39
40 5 -3 0 -15 -12 -26z m3020 22 c0 -5 -6 -10 -14 -10 -8 0 -18 5 -21 10 -3 6
3 10 14 10 12 0 21 -4 21 -10z m985 0 c3 -6 -1 -7 -9 -4 -18 7 -21 14 -7 14 6
0 13 -4 16 -10z m-4132 -15 c-3 -9 -8 -14 -10 -11 -3 3 -2 9 2 15 9 16 15 13
8 -4z m2658 -8 c-10 -9 -11 -8 -5 6 3 10 9 15 12 12 3 -3 0 -11 -7 -18z m-125
-32 c-7 -27 -26 -34 -26 -10 0 8 -6 15 -12 15 -7 1 -2 10 12 21 27 23 36 14
26 -26z m966 13 c-7 -7 -12 -20 -12 -30 0 -11 -5 -15 -15 -12 -13 5 -13 8 0
21 8 8 15 19 15 24 0 5 5 9 12 9 9 0 9 -3 0 -12z m-3284 -10 c-3 -7 -14 -14
-26 -16 -16 -3 -20 1 -16 12 7 19 48 22 42 4z m3157 2 c3 -5 1 -10 -4 -10 -6
0 -11 5 -11 10 0 6 2 10 4 10 3 0 8 -4 11 -10z m-731 -19 c-13 -12 -21 -15
-26 -7 -13 20 -9 26 19 26 26 0 26 0 7 -19z m460 10 c3 -4 -6 -6 -19 -3 -14 2
-25 6 -25 8 0 8 39 4 44 -5z m-2644 -35 c-14 -14 -22 -2 -14 18 5 14 9 15 15
4 4 -7 4 -17 -1 -22z m2336 22 c4 -7 3 -8 -4 -4 -7 4 -12 2 -12 -3 0 -6 6 -11
14 -11 7 0 19 -7 26 -15 15 -18 7 -19 -36 -3 -28 10 -31 14 -21 30 14 21 23
23 33 6z m504 2 c0 -5 -8 -10 -17 -10 -15 0 -16 2 -3 10 19 12 20 12 20 0z
m-3192 -25 c-3 -3 -9 2 -12 12 -6 14 -5 15 5 6 7 -7 10 -15 7 -18z m1762 0
c-16 -19 -27 -19 -27 -1 0 8 6 12 14 9 7 -3 13 1 13 8 0 7 3 9 6 6 4 -4 1 -13
-6 -22z m1130 15 c0 -5 7 -10 15 -10 8 0 15 -4 15 -10 0 -5 -7 -10 -16 -10 -8
0 -12 -4 -9 -10 3 -5 15 -10 26 -10 10 0 19 -4 19 -10 0 -6 -10 -6 -27 1 -24
9 -30 7 -42 -10 -7 -12 -19 -21 -25 -21 -6 0 -5 4 3 9 18 12 6 42 -14 35 -8
-3 -15 -1 -15 5 0 6 4 11 10 11 5 0 7 7 4 15 -4 11 -2 13 9 10 8 -4 14 -13 13
-22 0 -9 4 -18 10 -20 7 -2 10 7 8 27 -2 16 1 30 6 30 6 0 10 -4 10 -10z
m-3263 -62 c-2 -13 -4 -3 -4 22 0 25 2 35 4 23 2 -13 2 -33 0 -45z m293 42
c-20 -13 -33 -13 -25 0 3 6 14 10 23 10 15 0 15 -2 2 -10z m597 4 c-3 -3 -12
-4 -19 -1 -8 3 -5 6 6 6 11 1 17 -2 13 -5z m2113 -26 c0 -5 -4 -8 -10 -8 -5 0
-10 10 -10 23 0 18 2 19 10 7 5 -8 10 -18 10 -22z m665 22 c-3 -5 1 -10 10
-10 9 0 14 4 11 8 -3 5 1 9 9 9 8 0 15 -4 15 -9 0 -5 5 -6 10 -3 6 3 10 1 10
-4 0 -6 -5 -11 -11 -11 -8 0 -7 -6 2 -17 13 -16 12 -17 -3 -4 -17 12 -23 9
-19 -12 1 -5 -3 -5 -9 -2 -6 4 -11 1 -9 -6 1 -8 1 -22 0 -33 -1 -15 -3 -16
-16 -6 -9 7 -14 19 -11 26 3 7 0 15 -7 18 -7 2 -4 5 6 5 10 1 15 6 12 11 -4 6
-11 8 -16 5 -5 -4 -9 -1 -9 4 0 6 5 11 10 11 6 0 9 3 9 8 -2 12 1 22 7 22 3 0
2 -4 -1 -10z m109 -44 c-7 -47 -24 -58 -30 -19 -2 12 3 24 11 27 8 3 15 11 15
17 0 8 -4 8 -15 -1 -8 -7 -15 -9 -15 -5 0 8 33 35 38 31 1 -2 -1 -24 -4 -50z
m586 50 c0 -11 -19 -15 -25 -6 -3 5 1 10 9 10 9 0 16 -2 16 -4z m-1654 -33
c-10 -10 -19 5 -10 18 6 11 8 11 12 0 2 -7 1 -15 -2 -18z m35 4 c-10 -9 -11
-8 -5 6 3 10 9 15 12 12 3 -3 0 -11 -7 -18z m95 15 c21 -14 23 -40 3 -45 -10
-3 -22 -1 -25 5 -3 5 -12 7 -20 4 -7 -3 -16 0 -20 6 -4 7 -3 8 4 4 11 -6 16 6
13 27 -1 9 31 9 45 -1z m337 -13 c-8 -8 -13 -7 -18 2 -5 8 -4 10 3 5 7 -4 12
-2 12 5 0 7 3 9 7 6 4 -4 2 -12 -4 -18z m398 -2 c-10 -9 -11 -8 -5 6 3 10 9
15 12 12 3 -3 0 -11 -7 -18z m-3261 3 c-8 -5 -19 -10 -25 -10 -5 0 -3 5 5 10
8 5 20 10 25 10 6 0 3 -5 -5 -10z m4011 -17 c-12 -20 -14 -14 -5 12 4 9 9 14
11 11 3 -2 0 -13 -6 -23z m-3471 -1 c0 -9 -58 -42 -73 -42 -7 0 3 10 21 21 17
12 32 25 32 31 0 5 5 6 10 3 6 -3 10 -9 10 -13z m2230 -12 c0 -5 -5 -10 -11
-10 -5 0 -7 5 -4 10 3 6 8 10 11 10 2 0 4 -4 4 -10z m50 6 c0 -9 -30 -14 -35
-6 -4 6 3 10 14 10 12 0 21 -2 21 -4z m260 -5 c0 -5 -15 -12 -34 -15 -19 -4
-37 -12 -39 -19 -4 -9 -6 -9 -6 0 -2 19 29 43 55 43 13 0 24 -4 24 -9z m730
-1 c0 -5 -5 -10 -11 -10 -5 0 -7 5 -4 10 3 6 8 10 11 10 2 0 4 -4 4 -10z
m1750 -6 c0 -2 -7 -4 -15 -4 -8 0 -15 4 -15 10 0 5 7 7 15 4 8 -4 15 -8 15
-10z m-5510 -16 c-13 -5 -25 -6 -29 -3 -9 10 21 24 37 17 12 -4 10 -7 -8 -14z
m1594 6 c3 -8 2 -12 -4 -9 -6 3 -10 1 -10 -6 0 -7 -2 -10 -5 -7 -5 5 4 38 10
38 2 0 6 -7 9 -16z m709 -9 c-3 -9 -8 -14 -10 -11 -3 3 -2 9 2 15 9 16 15 13
8 -4z m134 4 c-11 -7 -23 -7 -28 -2 -5 5 3 9 19 11 24 1 25 0 9 -9z m1008 -32
c-17 -40 -16 -40 -39 -31 -13 5 -14 9 -5 20 6 8 15 12 19 9 4 -2 13 7 20 20
20 36 23 24 5 -18z m-3350 15 c-3 -3 -11 0 -18 7 -9 10 -8 11 6 5 10 -3 15 -9
12 -12z m2481 -46 c12 -5 14 -10 7 -14 -6 -4 -20 -24 -31 -45 -11 -21 -23 -34
-26 -28 -4 5 -2 12 4 16 6 4 8 10 5 15 -3 5 3 14 12 20 15 9 15 10 -6 4 -16
-4 -21 -3 -17 5 4 6 13 11 21 11 10 0 11 5 2 24 -6 13 -17 21 -24 19 -7 -3
-13 2 -13 10 0 27 25 25 36 -3 7 -15 20 -30 30 -34z m690 44 c5 0 11 -6 12
-15 3 -14 1 -14 -17 2 -12 9 -21 22 -21 28 0 5 4 4 9 -3 4 -8 12 -13 17 -12z
m-356 1 c0 -4 15 -12 33 -18 31 -9 31 -9 10 -21 -12 -7 -30 -9 -40 -4 -19 7
-30 52 -13 52 6 0 10 -4 10 -9z m471 -8 c11 -15 11 -16 0 -6 -7 6 -21 9 -30 6
-14 -4 -14 -3 -1 6 8 6 16 11 16 11 1 0 8 -8 15 -17z m-3364 -15 c-3 -8 -6 -5
-6 6 -1 11 2 17 5 13 3 -3 4 -12 1 -19z m2436 7 c-3 -9 -8 -14 -10 -11 -3 3
-2 9 2 15 9 16 15 13 8 -4z m1067 5 c0 -5 -4 -10 -10 -10 -5 0 -10 -7 -10 -15
0 -15 -12 -20 -23 -9 -9 9 16 44 30 44 7 0 13 -4 13 -10z m-3365 -11 c4 -5 -3
-9 -14 -9 -26 0 -35 15 -11 17 11 1 22 -2 25 -8z m1957 -26 c-3 -16 -7 -22
-10 -15 -4 13 4 42 11 42 2 0 2 -12 -1 -27z m238 12 c0 -8 -4 -15 -8 -15 -5 0
-9 7 -9 15 0 8 4 15 9 15 4 0 8 -7 8 -15z m44 -18 c4 -19 3 -26 -4 -22 -5 3
-10 18 -10 32 0 32 5 28 14 -10z m107 -5 c-13 -4 -41 16 -41 29 0 5 12 2 26
-8 15 -9 21 -19 15 -21z m-346 19 c-3 -6 3 -15 12 -21 17 -11 17 -11 0 -6 -10
3 -21 6 -23 6 -2 0 -4 7 -4 15 0 8 5 15 11 15 5 0 8 -4 4 -9z m1378 -2 c-15
-15 -5 -39 17 -39 21 0 45 26 31 34 -5 3 -12 0 -14 -6 -4 -9 -6 -10 -6 -1 -2
20 18 25 34 9 13 -13 13 -18 0 -43 -8 -15 -15 -38 -15 -51 0 -20 -2 -21 -22
-11 -19 9 -21 9 -11 -2 9 -9 10 -16 2 -26 -8 -9 -8 -13 0 -13 6 0 11 4 11 10
0 5 7 7 16 3 11 -4 12 -9 5 -16 -16 -16 -13 -49 5 -75 9 -13 13 -30 10 -39 -8
-19 -15 -13 -21 17 -6 31 -13 36 -28 20 -9 -10 -9 -11 1 -6 9 6 12 -1 9 -29
-5 -40 -12 -52 -22 -36 -3 6 -1 11 4 11 6 0 11 4 11 10 0 5 -7 7 -15 4 -8 -4
-15 -1 -15 5 0 6 6 11 14 11 12 0 12 4 0 30 -16 31 -31 42 -20 15 3 -8 1 -15
-4 -15 -6 0 -10 8 -10 18 0 14 -4 13 -19 -7 l-18 -24 -7 27 c-8 33 -1 47 21
39 11 -4 14 -3 9 6 -5 7 -14 10 -22 7 -8 -3 -14 -1 -14 5 0 6 -4 7 -10 4 -5
-3 -10 -2 -10 4 0 5 6 11 13 14 9 3 9 9 0 25 -9 16 -10 23 -1 28 6 4 8 3 4 -4
-8 -14 1 -19 54 -31 30 -7 39 -6 32 1 -6 6 -22 12 -34 14 -13 1 -26 3 -30 3
-5 1 -7 4 -6 9 0 4 -3 16 -7 26 -6 14 -3 23 10 32 23 17 42 18 48 2 2 -7 3 -4
1 8 -4 22 3 34 20 34 6 0 6 -4 -1 -11z m-2293 -9 c0 -5 -2 -10 -4 -10 -3 0 -8
5 -11 10 -3 6 -1 10 4 10 6 0 11 -4 11 -10z m650 6 c0 -3 -4 -8 -10 -11 -5 -3
-10 -1 -10 4 0 6 5 11 10 11 6 0 10 -2 10 -4z m325 -14 c-3 -3 -11 0 -18 7 -9
10 -8 11 6 5 10 -3 15 -9 12 -12z m1143 -7 c-3 -3 -9 2 -12 12 -6 14 -5 15 5
6 7 -7 10 -15 7 -18z m-595 0 c-3 -9 -8 -14 -10 -11 -3 3 -2 9 2 15 9 16 15
13 8 -4z m-2796 -27 c-3 -8 -6 -5 -6 6 -1 11 2 17 5 13 3 -3 4 -12 1 -19z
m113 12 c0 -5 -5 -10 -11 -10 -5 0 -7 5 -4 10 3 6 8 10 11 10 2 0 4 -4 4 -10z
m110 0 c0 -5 -7 -10 -15 -10 -8 0 -15 5 -15 10 0 6 7 10 15 10 8 0 15 -4 15
-10z m1850 -20 c-14 -26 -12 -34 4 -21 11 9 17 4 32 -26 24 -52 21 -95 -6 -78
-9 6 -9 9 -1 15 9 5 9 14 -1 36 -16 39 -18 40 -27 25 -7 -11 -11 -9 -20 6 -11
22 6 76 21 67 5 -3 4 -14 -2 -24z m-835 10 c3 -5 2 -10 -4 -10 -5 0 -13 5 -16
10 -3 6 -2 10 4 10 5 0 13 -4 16 -10z m1113 -2 c-6 -18 -28 -21 -28 -4 0 9 7
16 16 16 9 0 14 -5 12 -12z m152 2 c0 -5 -2 -10 -4 -10 -3 0 -8 5 -11 10 -3 6
-1 10 4 10 6 0 11 -4 11 -10z m-65 -10 c3 -5 1 -10 -4 -10 -6 0 -11 5 -11 10
0 6 2 10 4 10 3 0 8 -4 11 -10z m249 -5 c-4 -8 -11 -15 -16 -15 -6 0 -5 6 2
15 7 8 14 15 16 15 2 0 1 -7 -2 -15z m-2574 -4 c0 -5 -10 -11 -22 -14 -22 -6
-22 -6 -4 8 23 17 26 18 26 6z m1777 -33 c-7 -10 -15 -18 -19 -18 -11 0 -10 5
4 35 8 17 14 22 19 14 4 -7 2 -20 -4 -31z m243 28 c-7 -7 -14 -6 -21 1 -9 9
-7 12 9 10 14 -1 18 -5 12 -11z m635 4 c8 -13 -5 -13 -25 0 -13 8 -13 10 2 10
9 0 20 -4 23 -10z m-2525 -10 c0 -5 -4 -10 -10 -10 -5 0 -10 5 -10 10 0 6 5
10 10 10 6 0 10 -4 10 -10z m-207 -17 c-7 -3 -9 -12 -6 -21 4 -13 3 -14 -6 -6
-14 13 -3 47 12 37 8 -5 8 -8 0 -10z m2136 3 c9 -11 9 -16 -1 -22 -7 -4 -10
-4 -6 1 4 4 3 14 -3 22 -6 7 -9 13 -6 13 2 0 10 -6 16 -14z m141 -24 c7 2 15
-3 17 -10 4 -9 -2 -10 -23 -2 -34 13 -54 29 -54 43 0 6 11 0 24 -12 13 -12 29
-21 36 -19z m205 20 c-3 -3 -11 0 -18 7 -9 10 -8 11 6 5 10 -3 15 -9 12 -12z
m925 4 c-7 -7 -14 -6 -21 1 -9 9 -7 12 9 10 14 -1 18 -5 12 -11z m-1096 -12
c3 -8 2 -12 -4 -9 -6 3 -10 10 -10 16 0 14 7 11 14 -7z m291 6 c3 -6 -1 -7 -9
-4 -18 7 -21 14 -7 14 6 0 13 -4 16 -10z m-1311 -25 c-9 -14 -21 -25 -27 -25
-6 0 0 11 13 25 13 14 25 25 27 25 2 0 -4 -11 -13 -25z m-1228 -5 c0 -12 -4
-16 -9 -11 -5 5 -6 14 -3 20 10 15 12 14 12 -9z m130 -17 c-11 -11 -17 4 -9
23 7 18 8 18 11 1 2 -10 1 -21 -2 -24z m2348 29 c3 -5 -1 -9 -9 -9 -8 0 -15 4
-15 9 0 4 4 8 9 8 6 0 12 -4 15 -8z m182 -24 c14 -28 15 -31 2 -20 -14 11 -31
52 -22 52 2 0 11 -15 20 -32z m24 28 c0 -3 -4 -8 -10 -11 -5 -3 -10 -1 -10 4
0 6 5 11 10 11 6 0 10 -2 10 -4z m64 -27 c-10 -16 -24 -9 -24 12 0 18 2 19 15
9 8 -7 12 -16 9 -21z m43 15 c-3 -3 -12 -4 -19 -1 -8 3 -5 6 6 6 11 1 17 -2
13 -5z m1498 -3 c3 -5 1 -12 -5 -16 -5 -3 -10 1 -10 9 0 18 6 21 15 7z m-2381
-26 c12 -18 13 -30 6 -50 -5 -14 -15 -25 -21 -25 -6 0 -9 -7 -5 -15 3 -10 -1
-15 -14 -15 -26 0 -34 17 -12 24 10 4 25 18 33 32 12 24 12 28 -9 44 -25 21
-28 30 -8 30 7 0 21 -11 30 -25z m84 0 c-3 -3 -9 2 -12 12 -6 14 -5 15 5 6 7
-7 10 -15 7 -18z m137 15 c3 -5 2 -10 -4 -10 -5 0 -13 5 -16 10 -3 6 -2 10 4
10 5 0 13 -4 16 -10z m2015 6 c0 -3 -4 -8 -10 -11 -5 -3 -10 -1 -10 4 0 6 5
11 10 11 6 0 10 -2 10 -4z m-2995 -16 c-3 -5 -11 -10 -16 -10 -6 0 -7 5 -4 10
3 6 11 10 16 10 6 0 7 -4 4 -10z m584 1 c8 -5 9 -11 3 -15 -5 -3 -15 1 -22 9
-14 16 -3 20 19 6z m2501 0 c0 -6 -4 -13 -10 -16 -5 -3 -10 1 -10 9 0 9 5 16
10 16 6 0 10 -4 10 -9z m-2005 -11 c3 -5 1 -10 -4 -10 -6 0 -11 5 -11 10 0 6
2 10 4 10 3 0 8 -4 11 -10z m-110 -18 c-3 -3 -11 0 -18 7 -9 10 -8 11 6 5 10
-3 15 -9 12 -12z m175 3 c16 -19 0 -19 -26 0 -16 12 -16 14 -3 15 9 0 22 -7
29 -15z m-1347 -38 c-9 -16 -24 9 -17 28 7 18 8 18 14 -1 4 -10 5 -23 3 -27z
m187 38 c0 -6 -87 -65 -97 -65 -4 1 2 9 14 19 12 10 19 22 15 26 -4 5 -1 5 6
1 6 -4 12 -3 12 3 0 5 8 12 18 14 26 7 32 7 32 2z m320 -17 c0 -19 -2 -20 -10
-8 -13 19 -13 30 0 30 6 0 10 -10 10 -22z m-1466 -3 c3 -8 1 -15 -3 -15 -5 0
-11 7 -15 15 -3 8 -1 15 3 15 5 0 11 -7 15 -15z m2156 -5 c0 -5 -5 -10 -11
-10 -5 0 -7 5 -4 10 3 6 8 10 11 10 2 0 4 -4 4 -10z m385 0 c-3 -5 -14 -10
-23 -9 -14 0 -13 2 3 9 27 11 27 11 20 0z m1728 3 c-7 -2 -19 -2 -25 0 -7 3
-2 5 12 5 14 0 19 -2 13 -5z m-3093 -7 c0 -2 -8 -10 -17 -17 -16 -13 -17 -12
-4 4 13 16 21 21 21 13z m219 -21 c2 -13 -1 -16 -13 -12 -8 3 -18 2 -21 -2 -2
-5 7 -12 21 -15 21 -6 24 -9 14 -22 -11 -12 -14 -12 -25 2 -11 16 -12 16 -18
0 -4 -10 -5 -21 -2 -26 2 -4 -7 -7 -21 -7 -14 0 -22 2 -16 6 14 9 25 51 13 51
-6 0 -11 5 -11 10 0 6 9 10 19 10 10 0 22 7 25 16 8 20 30 13 35 -11z m-634 5
c-3 -5 -11 -10 -16 -10 -6 0 -7 5 -4 10 3 6 11 10 16 10 6 0 7 -4 4 -10z m755
6 c0 -2 -7 -7 -16 -10 -8 -3 -12 -2 -9 4 6 10 25 14 25 6z m330 -6 c0 -5 -7
-10 -16 -10 -8 0 -12 5 -9 10 3 6 10 10 16 10 5 0 9 -4 9 -10z m256 -3 c4 -4
0 -7 -9 -7 -9 0 -18 4 -21 9 -7 10 20 9 30 -2z m-1914 -4 c-6 -2 -9 -10 -6
-15 4 -7 2 -8 -4 -4 -18 11 -14 26 6 25 10 0 12 -3 4 -6z m1798 -15 c0 -6 -6
-5 -15 2 -8 7 -15 14 -15 16 0 2 7 1 15 -2 8 -4 15 -11 15 -16z m200 12 c0 -5
-7 -7 -15 -4 -8 4 -15 8 -15 10 0 2 7 4 15 4 8 0 15 -4 15 -10z m374 -6 c9
-24 2 -26 -12 -4 -7 11 -8 20 -3 20 5 0 12 -7 15 -16z m1816 -10 c0 -8 -4 -12
-10 -9 -5 3 -10 13 -10 21 0 8 5 12 10 9 6 -3 10 -13 10 -21z m-2769 -17 c-12
-12 -31 0 -31 19 0 12 3 12 20 2 11 -7 16 -16 11 -21z m619 13 c11 -11 16 -20
11 -20 -5 0 -16 -15 -25 -32 -12 -26 -16 -28 -16 -12 0 11 6 26 12 32 10 10
10 17 0 32 -16 26 -8 26 18 0z m87 14 c-3 -3 -12 -4 -19 -1 -8 3 -5 6 6 6 11
1 17 -2 13 -5z m-2287 -14 c0 -5 -2 -10 -4 -10 -3 0 -8 5 -11 10 -3 6 -1 10 4
10 6 0 11 -4 11 -10z m380 -20 c-26 -36 -29 -37 -22 -5 2 14 8 22 13 19 5 -3
9 0 9 5 0 6 5 11 11 11 6 0 1 -13 -11 -30z m910 -1 c0 -14 -27 -22 -47 -14
-17 6 -17 7 0 16 9 6 15 15 11 21 -4 6 2 6 15 -1 11 -7 21 -16 21 -22z m710
16 c0 -11 7 -14 28 -10 25 5 25 5 5 -4 -13 -6 -23 -16 -24 -23 0 -7 -4 -3 -9
10 -5 12 -14 22 -20 22 -6 0 -8 5 -5 10 9 15 25 12 25 -5z m90 5 c13 -8 12
-10 -2 -10 -10 0 -18 -4 -18 -10 0 -5 5 -10 11 -10 5 0 7 -5 4 -10 -9 -15 -22
-4 -27 25 -5 26 6 32 32 15z m1140 -5 c0 -12 -19 -12 -23 0 -4 9 -1 12 9 8 7
-3 14 -7 14 -8z m890 -15 c0 -6 9 -10 20 -10 11 0 29 -9 40 -20 11 -11 20 -17
20 -14 0 4 7 1 15 -6 27 -23 16 -30 -40 -27 -37 2 -61 9 -73 21 -13 14 -14 20
-4 23 8 3 9 9 4 16 -5 7 -12 20 -15 30 -6 15 -4 16 13 7 11 -6 20 -15 20 -20z
m-3010 16 c0 -11 -19 -15 -25 -6 -3 5 1 10 9 10 9 0 16 -2 16 -4z m1068 -15
c3 -8 -1 -12 -9 -9 -7 2 -15 10 -17 17 -3 8 1 12 9 9 7 -2 15 -10 17 -17z
m162 10 c0 -6 -4 -13 -10 -16 -5 -3 -10 -10 -10 -16 0 -5 9 -4 20 3 28 18 34
5 15 -32 -16 -30 -17 -31 -30 -13 -8 10 -15 14 -15 9 0 -5 -8 -2 -17 5 -11 9
-14 10 -9 2 5 -9 2 -11 -8 -7 -14 5 -14 8 -1 21 8 8 19 11 25 8 5 -3 10 -1 10
4 0 6 -5 11 -10 11 -15 0 12 29 28 30 6 0 12 -4 12 -9z m-1329 -18 c13 -16 12
-17 -3 -4 -10 7 -18 15 -18 17 0 8 8 3 21 -13z m150 -5 c11 -21 11 -22 -4 -9
-10 7 -17 17 -17 22 0 15 9 10 21 -13z m964 -8 c-10 -11 -23 -20 -29 -20 -6 0
-2 7 8 15 11 8 16 15 10 15 -5 0 -2 4 6 10 22 14 25 3 5 -20z m-355 -1 c0 -5
-4 -9 -10 -9 -5 0 -10 7 -10 16 0 8 5 12 10 9 6 -3 10 -10 10 -16z m673 6 c-3
-9 -8 -14 -10 -11 -3 3 -2 9 2 15 9 16 15 13 8 -4z m-1025 -21 c-11 -23 -13
-24 -19 -7 -3 10 -1 21 5 25 21 14 26 8 14 -18z m562 17 c0 -15 -12 -41 -19
-41 -3 0 -6 11 -6 25 0 14 6 25 13 25 6 0 12 -4 12 -9z m70 -6 c11 -13 10 -14
-4 -9 -9 3 -16 10 -16 15 0 13 6 11 20 -6z m-1935 -4 c3 -5 1 -12 -5 -16 -5
-3 -10 1 -10 9 0 18 6 21 15 7z m342 3 c-3 -3 -12 -4 -19 -1 -8 3 -5 6 6 6 11
1 17 -2 13 -5z m1407 -10 c8 -22 8 -39 -1 -30 -5 4 -8 11 -8 14 0 4 -4 13 -8
20 -5 6 -4 12 1 12 6 0 13 -7 16 -16z m541 -13 c1 -15 -3 -20 -12 -16 -8 3
-20 5 -26 6 -7 0 -1 5 13 10 20 8 22 12 10 20 -12 9 -12 10 -1 7 8 -2 15 -14
16 -27z m100 -4 c11 -3 6 -5 -12 -4 -21 1 -33 6 -33 15 0 10 4 12 13 4 6 -5
21 -12 32 -15z m-2370 -6 c-3 -6 -11 -11 -16 -11 -5 0 -4 6 3 14 14 16 24 13
13 -3z m548 4 c-3 -9 -8 -14 -10 -11 -3 3 -2 9 2 15 9 16 15 13 8 -4z m707 5
c0 -5 -9 -14 -20 -20 -19 -10 -20 -10 -8 9 13 22 28 28 28 11z m100 -5 c0 -12
-19 -12 -23 0 -4 9 -1 12 9 8 7 -3 14 -7 14 -8z m310 -19 c0 -5 -7 -3 -15 4
-8 7 -12 17 -9 22 7 10 24 -9 24 -26z m240 23 c12 -8 10 -9 -9 -4 -17 5 -22 4
-16 -5 5 -9 4 -11 -4 -6 -6 4 -9 12 -6 17 8 12 16 11 35 -2z m115 -10 c-3 -12
-7 -24 -11 -28 -4 -3 -5 1 -1 10 3 9 0 22 -6 28 -8 8 -7 11 5 11 12 0 16 -7
13 -21z m-215 1 c0 -5 -2 -10 -4 -10 -3 0 -8 5 -11 10 -3 6 -1 10 4 10 6 0 11
-4 11 -10z m648 1 c10 -6 7 -10 -10 -13 -16 -3 -25 0 -25 9 0 15 16 17 35 4z
m897 -1 c-8 -13 7 -13 23 0 7 5 6 3 -2 -6 -8 -9 -19 -13 -25 -10 -14 9 -14 26
0 26 5 0 7 -4 4 -10z m-2755 -22 c0 -6 -6 -5 -15 2 -8 7 -15 14 -15 16 0 2 7
1 15 -2 8 -4 15 -11 15 -16z m1493 16 c3 -3 3 -12 0 -20 -6 -16 -43 -19 -43
-4 0 6 7 10 16 10 8 0 12 5 9 10 -7 11 8 14 18 4z m47 -4 c0 -5 -5 -10 -11
-10 -5 0 -7 -5 -4 -10 4 -6 11 -7 17 -4 7 5 8 2 3 -7 -8 -12 -6 -12 8 0 9 7
14 17 11 22 -3 5 2 9 10 9 10 0 14 -8 12 -27 -2 -16 1 -35 8 -43 9 -13 9 -13
-5 -3 -9 7 -20 9 -24 5 -5 -4 -5 -1 0 7 6 10 3 12 -12 7 -14 -5 -22 0 -30 16
-5 13 -8 29 -6 36 5 14 23 16 23 2z m-1007 -26 c-3 -8 -13 -14 -22 -13 -9 0
-11 3 -4 5 7 3 9 12 6 20 -4 10 0 12 10 8 9 -3 13 -12 10 -20z m335 9 c-2 -11
-14 -19 -30 -21 -14 -2 -34 -12 -44 -23 -9 -10 -26 -19 -38 -19 -20 0 -20 1 2
16 13 9 21 22 18 30 -3 8 -1 14 4 14 6 0 10 -4 10 -9 0 -4 11 -6 25 -4 13 3
24 8 23 12 -2 15 3 21 18 21 9 0 14 -7 12 -17z m506 5 c28 -12 46 -50 27 -56
-6 -2 -9 -8 -6 -13 4 -5 -1 -6 -9 -3 -18 7 -28 31 -16 39 6 4 10 -1 10 -10 0
-10 5 -13 12 -9 7 5 1 17 -21 36 -35 31 -34 34 3 16z m366 -1 c0 -5 8 -6 19
-2 22 7 39 -24 19 -36 -21 -14 -105 22 -94 39 6 10 56 9 56 -1z m-1494 -44 c1
-7 -2 -15 -7 -19 -5 -3 -9 4 -9 15 0 10 -3 28 -6 38 -5 15 -4 15 7 -2 7 -11
14 -26 15 -32z m468 32 c-4 -8 -16 -15 -28 -15 -21 1 -21 1 -2 15 25 19 37 19
30 0z m434 -4 c3 -8 -1 -12 -9 -9 -7 2 -15 10 -17 17 -3 8 1 12 9 9 7 -2 15
-10 17 -17z m525 -13 c3 -11 9 -18 14 -15 4 3 17 -1 28 -10 19 -14 19 -14 -6
-8 -14 3 -32 7 -40 8 -8 2 -19 6 -26 10 -6 4 -14 3 -18 -3 -3 -6 0 -12 7 -14
39 -13 40 -14 12 -15 -24 -1 -33 4 -37 19 -3 11 -1 20 4 20 5 0 9 8 9 19 0 25
46 16 53 -11z m-1303 18 c0 -3 -4 -8 -10 -11 -5 -3 -10 -1 -10 4 0 6 5 11 10
11 6 0 10 -2 10 -4z m707 -18 c-3 -8 -6 -5 -6 6 -1 11 2 17 5 13 3 -3 4 -12 1
-19z m-1167 -6 c0 -12 -3 -12 -15 -2 -8 7 -15 13 -15 15 0 1 7 2 15 2 8 0 15
-7 15 -15z m850 9 c0 -6 -4 -13 -10 -16 -5 -3 -10 1 -10 9 0 9 5 16 10 16 6 0
10 -4 10 -9z m350 -11 c0 -5 -2 -10 -4 -10 -3 0 -8 5 -11 10 -3 6 -1 10 4 10
6 0 11 -4 11 -10z m235 -17 c4 -12 3 -13 -8 -5 -8 7 -17 9 -20 5 -4 -3 -7 -1
-7 6 0 7 -5 9 -12 5 -6 -4 -8 -3 -5 4 9 14 44 4 52 -15z m165 23 c0 -3 -4 -8
-10 -11 -5 -3 -10 -1 -10 4 0 6 5 11 10 11 6 0 10 -2 10 -4z m1248 -10 c11 4
8 -1 -7 -14 -13 -10 -21 -24 -17 -30 3 -6 2 -13 -3 -16 -17 -11 -23 15 -8 32
8 9 13 23 11 30 -1 7 0 8 2 3 3 -6 13 -7 22 -5z m-2078 -5 c0 -12 -28 -22 -34
-12 -3 5 -3 11 1 15 9 9 33 7 33 -3z m176 -6 c-10 -8 -23 -12 -27 -9 -17 10
-9 20 19 22 25 1 26 1 8 -13z m611 0 c8 -9 13 -18 11 -21 -3 -2 -13 5 -23 16
-21 23 -11 27 12 5z m-2147 -5 c0 -5 -2 -10 -4 -10 -3 0 -8 5 -11 10 -3 6 -1
10 4 10 6 0 11 -4 11 -10z m717 -5 c0 -8 -4 -15 -9 -15 -10 0 -11 14 -1 23 9
10 10 9 10 -8z m-452 -13 c-3 -3 -11 0 -18 7 -9 10 -8 11 6 5 10 -3 15 -9 12
-12z m1050 8 c3 -5 2 -10 -4 -10 -5 0 -13 5 -16 10 -3 6 -2 10 4 10 5 0 13 -4
16 -10z m259 -7 c4 -10 4 -14 0 -10 -4 4 -13 2 -20 -4 -14 -11 -34 -4 -34 12
0 6 4 8 8 5 4 -2 14 -1 22 5 8 5 16 9 16 9 1 0 5 -8 8 -17z m392 -24 c1 -19 0
-29 -3 -22 -2 7 -10 10 -17 7 -8 -3 -16 1 -19 9 -4 11 0 13 16 10 13 -3 18 -1
12 4 -15 12 -17 35 -3 31 7 -3 14 -20 14 -39z m-463 10 c-6 -6 -18 -6 -28 -3
-18 7 -18 8 1 14 23 9 39 1 27 -11z m-150 -8 c-5 -21 -49 -48 -60 -37 -4 4 3
9 16 13 13 3 20 11 17 19 -3 7 3 15 12 17 9 3 18 5 19 6 0 0 -1 -7 -4 -18z
m813 2 c-3 -3 -25 -7 -48 -8 -24 -1 -35 -1 -25 2 9 2 15 8 13 12 -3 4 11 5 30
3 19 -2 33 -7 30 -9z m-1466 -24 c0 -18 -18 -9 -23 12 -4 16 -3 18 9 8 8 -6
14 -15 14 -20z m387 9 c-3 -8 -6 -5 -6 6 -1 11 2 17 5 13 3 -3 4 -12 1 -19z
m358 12 c3 -5 -3 -10 -14 -10 -12 0 -21 5 -21 10 0 6 6 10 14 10 8 0 18 -4 21
-10z m275 -21 c9 -15 7 -19 -5 -19 -9 0 -13 5 -10 10 3 6 -1 13 -9 16 -9 3
-13 10 -10 15 7 12 21 3 34 -22z m45 10 c-7 -10 -35 -1 -35 11 0 5 9 6 20 3
11 -3 17 -9 15 -14z m1933 10 c-2 -6 -8 -10 -13 -10 -5 0 -11 4 -13 10 -2 6 4
11 13 11 9 0 15 -5 13 -11z m-3058 -3 c0 -3 -4 -8 -10 -11 -5 -3 -10 -1 -10 4
0 6 5 11 10 11 6 0 10 -2 10 -4z m3120 -16 c0 -5 -2 -10 -4 -10 -3 0 -8 5 -11
10 -3 6 -1 10 4 10 6 0 11 -4 11 -10z m970 -11 c0 -5 -4 -9 -10 -9 -5 0 -10 7
-10 16 0 8 5 12 10 9 6 -3 10 -10 10 -16z m-1065 -29 c-3 -6 -13 -10 -20 -10
-12 0 -12 5 -3 25 10 22 13 23 20 10 5 -8 6 -20 3 -25z m-2598 19 c-11 -7 -16
-17 -12 -29 3 -10 2 -21 -3 -23 -10 -7 -10 34 1 51 5 6 14 12 20 12 7 0 4 -5
-6 -11z m129 -15 c-4 -9 -9 -15 -11 -12 -3 3 -3 13 1 22 4 9 9 15 11 12 3 -3
3 -13 -1 -22z m2244 15 c0 -4 3 -15 7 -25 5 -13 3 -15 -8 -9 -12 8 -12 6 -1
-8 9 -10 10 -22 5 -32 -8 -14 -11 -13 -28 5 -15 17 -16 23 -6 29 9 6 10 11 2
15 -18 12 -12 32 9 32 11 0 20 -3 20 -7z m-2031 -3 c-2 -2 -15 -9 -29 -15 -24
-11 -24 -11 -6 3 16 13 49 24 35 12z m-82 -31 c-7 -13 -14 -20 -15 -14 -5 14
6 39 17 39 5 0 4 -11 -2 -25z m253 10 c5 3 10 1 10 -5 0 -6 5 -8 10 -5 12 7
12 3 4 -19 -3 -9 -13 -16 -21 -16 -10 0 -13 6 -9 16 5 14 4 15 -9 4 -17 -14
-20 -46 -5 -55 6 -4 8 -11 4 -16 -3 -5 0 -18 8 -27 12 -15 11 -16 -4 -3 -13 9
-18 10 -18 2 0 -7 -5 -9 -11 -5 -7 4 -8 9 -1 13 5 3 9 34 7 68 -1 51 1 61 11
52 7 -6 18 -8 24 -4z m280 -5 c-6 -11 -16 -20 -22 -20 -6 0 -8 3 -5 7 4 3 2
12 -4 20 -9 10 -6 13 15 13 24 0 25 -2 16 -20z m-1050 0 c8 -5 11 -10 5 -10
-5 0 -17 5 -25 10 -8 5 -10 10 -5 10 6 0 17 -5 25 -10z m152 -12 c-6 -6 -15
-8 -19 -4 -4 4 -1 11 7 16 19 12 27 3 12 -12z m445 7 c0 -8 -4 -12 -9 -9 -5 3
-6 10 -3 15 9 13 12 11 12 -6z m73 5 c0 -5 -2 -10 -4 -10 -3 0 -8 5 -11 10 -3
6 -1 10 4 10 6 0 11 -4 11 -10z m48 -19 c0 -17 -5 -32 -14 -35 -8 -3 -14 -13
-14 -23 0 -15 2 -15 14 3 14 19 14 19 13 -1 -3 -32 -37 -49 -37 -19 0 14 -3
15 -17 3 -10 -7 -8 -2 5 12 12 14 22 31 22 37 0 7 5 12 10 12 6 0 9 3 9 8 -2
12 1 32 4 32 2 0 4 -13 5 -29z m3442 18 c0 -11 -27 -12 -34 -1 -2 4 4 9 15 9
10 1 19 -2 19 -8z m-3519 -17 c-7 -2 -18 1 -23 6 -8 8 -4 9 13 5 13 -4 18 -8
10 -11z m337 -1 c3 -10 0 -12 -11 -8 -10 4 -20 -1 -26 -11 -6 -9 -11 -12 -11
-5 0 6 5 15 10 18 6 4 7 11 4 17 -4 6 1 8 11 6 10 -1 20 -9 23 -17z m-1003 -1
c3 -5 1 -10 -4 -10 -6 0 -11 5 -11 10 0 6 2 10 4 10 3 0 8 -4 11 -10z m936
-17 c-12 -20 -14 -14 -5 12 4 9 9 14 11 11 3 -2 0 -13 -6 -23z m-881 12 c0 -2
-10 -9 -22 -15 -22 -11 -22 -10 -4 4 21 17 26 19 26 11z m-116 -20 c3 -9 0
-15 -9 -15 -16 0 -27 14 -18 24 10 10 21 7 27 -9z m626 -17 c0 -19 -16 -5 -17
14 -2 18 0 20 7 8 5 -8 10 -18 10 -22z m315 22 c3 -5 1 -10 -4 -10 -6 0 -11 5
-11 10 0 6 2 10 4 10 3 0 8 -4 11 -10z m2455 -20 c0 -5 -8 -14 -17 -20 -16 -9
-15 -10 5 -5 18 5 22 2 22 -14 0 -12 -4 -21 -10 -21 -5 0 -10 4 -10 10 0 5 -7
7 -15 4 -8 -4 -15 -1 -15 5 0 6 -5 11 -11 11 -6 0 -9 -7 -6 -15 10 -25 -9 -25
-33 0 l-23 24 28 11 c16 6 34 9 42 6 7 -3 13 -1 13 4 0 6 -5 10 -11 10 -5 0
-7 5 -4 10 7 12 45 -5 45 -20z m-2494 8 c4 -7 3 -8 -4 -4 -18 11 -14 -9 3 -24
9 -7 13 -15 10 -18 -3 -3 -12 3 -20 14 -8 11 -15 14 -15 7 0 -7 -5 -13 -12
-13 -6 0 -8 3 -5 7 4 3 2 12 -5 20 -8 11 -7 12 5 8 8 -4 18 -2 22 4 8 14 12
14 21 -1z m-845 -31 c-10 -9 -11 -8 -5 6 3 10 9 15 12 12 3 -3 0 -11 -7 -18z
m884 13 c-3 -5 -11 -10 -16 -10 -6 0 -7 5 -4 10 3 6 11 10 16 10 6 0 7 -4 4
-10z m3915 1 c0 -10 -26 -9 -36 2 -4 4 2 7 14 7 12 0 22 -4 22 -9z m-4312 -26
c-3 -3 -9 2 -12 12 -6 14 -5 15 5 6 7 -7 10 -15 7 -18z m2057 13 c-11 -6 -26
-18 -32 -26 -10 -12 -13 -12 -13 -3 0 17 30 40 50 40 10 0 9 -3 -5 -11z m2041
-17 c-4 -6 -14 -11 -22 -11 -8 0 -14 -5 -14 -12 0 -6 -3 -8 -6 -5 -4 4 1 18
11 33 11 18 20 23 27 16 6 -6 7 -15 4 -21z m-3926 2 c0 -14 -2 -15 -9 -4 -5 8
-14 10 -21 6 -9 -5 -11 -4 -6 3 11 18 36 14 36 -5z m2010 -14 c0 -14 -17 -10
-23 5 -4 10 -1 13 9 9 7 -3 14 -9 14 -14z m2150 11 c0 -5 -4 -10 -10 -10 -5 0
-10 5 -10 10 0 6 5 10 10 10 6 0 10 -4 10 -10z m-2235 -70 c-3 -10 1 -33 9
-49 18 -35 19 -41 7 -41 -5 0 -14 14 -21 30 -7 17 -18 30 -24 30 -6 0 -4 5 4
11 11 8 12 12 2 16 -16 6 -6 23 14 23 11 0 13 -6 9 -20z m2035 0 c0 -5 -5 -10
-11 -10 -5 0 -7 5 -4 10 3 6 8 10 11 10 2 0 4 -4 4 -10z m-1971 -24 c9 -10 8
-15 -2 -19 -8 -3 -13 3 -13 14 0 23 0 23 15 5z m0 -27 c26 14 31 14 31 -4 0
-8 -7 -15 -15 -15 -9 0 -12 -6 -8 -17 6 -16 3 -15 -16 2 -13 11 -27 29 -32 40
-10 19 -9 19 5 2 11 -15 18 -16 35 -8z m1981 1 c0 -19 -11 -26 -23 -14 -8 8 3
34 14 34 5 0 9 -9 9 -20z m-2062 -36 c8 -6 12 -16 8 -22 -10 -17 3 -15 20 3
22 21 34 19 34 -7 0 -18 2 -20 10 -8 7 12 9 10 7 -8 -1 -25 -8 -27 -26 -9 -10
10 -11 8 -5 -6 5 -15 3 -16 -19 -8 -27 11 -55 -8 -42 -29 3 -5 -1 -10 -10 -10
-10 0 -13 5 -9 12 4 6 -1 17 -11 25 -11 7 -13 13 -7 13 7 0 12 9 12 19 0 11 5
23 11 27 8 5 8 9 -1 14 -7 5 -9 13 -4 21 6 10 9 10 12 -1 3 -8 12 -20 20 -26z
m2013 26 c20 -11 25 -35 9 -45 -5 -3 -16 8 -25 25 -17 32 -14 36 16 20z m119
-14 c8 -3 3 -4 -12 -1 -18 3 -28 1 -28 -6 0 -7 -2 -10 -5 -7 -11 10 7 39 19
30 6 -5 18 -12 26 -16z m-2185 -26 c3 -5 1 -10 -4 -10 -6 0 -11 5 -11 10 0 6
2 10 4 10 3 0 8 -4 11 -10z m-1285 -30 c0 -5 -2 -10 -4 -10 -3 0 -8 5 -11 10
-3 6 -1 10 4 10 6 0 11 -4 11 -10z m1447 -15 c0 -8 -4 -15 -9 -15 -4 0 -8 7
-8 15 0 8 4 15 8 15 5 0 9 -7 9 -15z m109 -30 c1 -14 -3 -25 -10 -25 -6 0 -5
-4 4 -10 12 -7 12 -12 -4 -29 -10 -11 -15 -25 -11 -33 6 -9 5 -10 -3 -3 -7 7
-7 27 1 68 11 60 21 74 23 32z m1022 -140 c-3 -3 -9 2 -12 12 -6 14 -5 15 5 6
7 -7 10 -15 7 -18z m-1072 -12 c-10 -10 -19 5 -10 18 6 11 8 11 12 0 2 -7 1
-15 -2 -18z m-577 -143 c12 -1 10 -5 -8 -21 -21 -17 -22 -22 -10 -29 10 -7 15
-5 17 5 2 8 10 15 18 15 12 0 12 -3 2 -20 -7 -11 -19 -20 -26 -20 -7 0 -10 -5
-7 -10 4 -6 10 -8 15 -5 5 3 11 1 15 -5 8 -14 65 -13 65 1 0 6 -6 9 -13 6 -8
-3 -20 -1 -28 4 -10 6 -2 9 25 9 30 0 37 -3 32 -16 -3 -8 -2 -13 2 -10 10 6
46 -34 38 -42 -4 -3 -11 -1 -18 6 -8 8 -17 8 -30 1 -10 -5 -24 -7 -31 -2 -18
11 -97 13 -97 2 0 -6 -7 -6 -19 0 -10 6 -34 12 -54 14 -23 2 -46 13 -61 30
-14 15 -31 27 -38 27 -9 0 -9 -3 2 -10 8 -5 11 -12 8 -15 -4 -4 -13 -1 -21 6
-11 11 -12 16 -1 26 7 7 20 13 29 13 9 0 29 8 43 18 15 10 37 17 50 16 12 -1
22 3 22 9 0 5 13 7 31 3 17 -3 39 -6 48 -6z m-394 -116 c0 -5 4 -15 8 -21 6
-9 2 -13 -10 -13 -14 0 -19 7 -19 25 0 14 5 24 11 22 5 -2 10 -8 10 -13z m35
-4 c0 -5 -4 -10 -10 -10 -5 0 -10 5 -10 10 0 6 5 10 10 10 6 0 10 -4 10 -10z
m60 0 c0 -5 -8 -10 -17 -10 -15 0 -16 2 -3 10 19 12 20 12 20 0z m757 -32 c-3
-8 -6 -5 -6 6 -1 11 2 17 5 13 3 -3 4 -12 1 -19z m2141 -3 c-3 -3 -9 2 -12 12
-6 14 -5 15 5 6 7 -7 10 -15 7 -18z m-2988 -15 c0 -5 -5 -10 -11 -10 -5 0 -7
5 -4 10 3 6 8 10 11 10 2 0 4 -4 4 -10z m50 -12 c0 -6 -3 -8 -6 -5 -4 4 -19
-2 -34 -13 -34 -24 -41 -25 -34 -5 4 8 12 15 20 15 8 0 14 5 14 10 0 6 9 10
20 10 11 0 20 -5 20 -12z m50 8 c0 -2 -9 -6 -20 -9 -11 -3 -20 -1 -20 4 0 5 9
9 20 9 11 0 20 -2 20 -4z m2830 -6 c0 -5 -5 -10 -11 -10 -5 0 -7 5 -4 10 3 6
8 10 11 10 2 0 4 -4 4 -10z m-245 -100 c-3 -5 -11 -10 -16 -10 -6 0 -7 5 -4
10 3 6 11 10 16 10 6 0 7 -4 4 -10z m50 -10 c3 -6 -1 -7 -9 -4 -18 7 -21 14
-7 14 6 0 13 -4 16 -10z m-160 -140 c3 -5 1 -10 -4 -10 -6 0 -11 5 -11 10 0 6
2 10 4 10 3 0 8 -4 11 -10z m-3968 -16 c-3 -3 -12 -4 -19 -1 -8 3 -5 6 6 6 11
1 17 -2 13 -5z m253 -10 c0 -8 -5 -12 -10 -9 -6 4 -8 11 -5 16 9 14 15 11 15
-7z m3750 -20 c0 -14 -30 -33 -45 -28 -14 6 -14 8 2 20 18 14 43 19 43 8z
m-70 -59 c11 -13 10 -14 -5 -9 -10 4 -20 1 -25 -6 -8 -13 -30 -5 -30 11 0 6 5
7 10 4 6 -3 10 -1 10 4 0 16 26 13 40 -4z m-230 -25 c0 -5 -7 -10 -15 -10 -8
0 -15 5 -15 10 0 6 7 10 15 10 8 0 15 -4 15 -10z m90 -70 c0 -5 -4 -10 -10
-10 -5 0 -10 5 -10 10 0 6 5 10 10 10 6 0 10 -4 10 -10z"/>
<path d="M3750 3821 c0 -5 5 -13 10 -16 6 -3 10 -2 10 4 0 5 -4 13 -10 16 -5
3 -10 2 -10 -4z"/>
<path d="M346 3813 c-6 -14 -5 -15 5 -6 7 7 10 15 7 18 -3 3 -9 -2 -12 -12z"/>
<path d="M4300 3744 c0 -15 26 -19 34 -5 3 5 -3 11 -14 14 -13 3 -20 0 -20 -9z"/>
<path d="M4280 3601 c0 -6 4 -13 10 -16 6 -3 7 1 4 9 -7 18 -14 21 -14 7z"/>
<path d="M4130 3348 c0 -9 7 -19 16 -22 15 -6 15 -4 3 11 -7 10 -15 20 -16 22
-2 2 -3 -3 -3 -11z"/>
<path d="M4096 3185 c-9 -26 -7 -32 5 -12 6 10 9 21 6 23 -2 3 -7 -2 -11 -11z"/>
<path d="M4110 3159 c0 -5 5 -7 10 -4 6 3 10 8 10 11 0 2 -4 4 -10 4 -5 0 -10
-5 -10 -11z"/>
<path d="M3745 3320 c-19 -8 -19 -9 2 -9 12 -1 25 4 28 9 7 12 -2 12 -30 0z"/>
<path d="M3840 3220 c0 -5 5 -10 11 -10 5 0 7 5 4 10 -3 6 -8 10 -11 10 -2 0
-4 -4 -4 -10z"/>
<path d="M3920 3150 c0 -6 7 -10 15 -10 8 0 15 2 15 4 0 2 -7 6 -15 10 -8 3
-15 1 -15 -4z"/>
<path d="M3970 3009 c0 -5 5 -7 10 -4 6 3 10 8 10 11 0 2 -4 4 -10 4 -5 0 -10
-5 -10 -11z"/>
<path d="M2955 2840 c3 -5 8 -10 11 -10 2 0 4 5 4 10 0 6 -5 10 -11 10 -5 0
-7 -4 -4 -10z"/>
<path d="M2885 2830 c3 -5 8 -10 11 -10 2 0 4 5 4 10 0 6 -5 10 -11 10 -5 0
-7 -4 -4 -10z"/>
<path d="M3346 2002 c-2 -4 0 -14 5 -22 8 -13 10 -13 19 0 5 8 10 18 10 23 0
10 -28 9 -34 -1z"/>
<path d="M3436 1997 c3 -10 9 -15 12 -12 3 3 0 11 -7 18 -10 9 -11 8 -5 -6z"/>
<path d="M3370 1960 c0 -5 5 -10 10 -10 6 0 10 5 10 10 0 6 -4 10 -10 10 -5 0
-10 -4 -10 -10z"/>
<path d="M3565 1930 c-3 -5 -1 -10 4 -10 6 0 11 5 11 10 0 6 -2 10 -4 10 -3 0
-8 -4 -11 -10z"/>
<path d="M4326 5284 c-4 -9 -12 -14 -21 -10 -9 3 -24 -5 -37 -19 -26 -30 -36
-31 -54 -8 -17 24 -31 7 -16 -18 10 -16 10 -28 2 -55 -6 -18 -9 -38 -5 -44 3
-5 1 -10 -5 -10 -6 0 -8 -10 -4 -24 8 -32 -27 -54 -46 -31 -10 12 -10 19 3 33
15 16 14 18 -11 29 -53 23 -103 32 -100 20 1 -7 -1 -25 -5 -40 -5 -18 -3 -34
4 -43 9 -11 9 -18 -1 -29 -7 -8 -10 -24 -7 -35 3 -11 -1 -27 -9 -35 -13 -13
-12 -17 6 -37 16 -17 20 -31 17 -55 -5 -30 -4 -31 18 -21 13 6 30 28 40 54 10
26 25 46 37 50 22 7 67 52 68 69 0 6 14 28 30 49 17 22 30 44 30 49 0 6 6 18
14 26 16 18 68 142 62 148 -2 2 -6 -4 -10 -13z"/>
<path d="M4622 5148 c-5 -7 -12 -31 -14 -53 -2 -33 0 -40 15 -39 79 4 77 3 77
32 0 16 -6 35 -12 44 -18 23 -53 31 -66 16z"/>
<path d="M4996 5101 c-4 -5 -1 -13 5 -16 6 -4 14 -16 18 -28 6 -15 9 -17 13
-6 7 17 -28 64 -36 50z"/>
<path d="M4160 5089 c0 -5 5 -7 10 -4 6 3 10 8 10 11 0 2 -4 4 -10 4 -5 0 -10
-5 -10 -11z"/>
<path d="M1067 5055 c-4 -8 -2 -17 3 -20 6 -4 10 3 10 14 0 25 -6 27 -13 6z"/>
<path d="M1218 5036 c-16 -21 -16 -25 -2 -30 9 -3 26 -3 39 0 21 5 27 0 42
-30 20 -42 38 -48 29 -8 -4 15 -7 37 -7 49 1 15 -8 24 -31 32 -43 15 -51 14
-70 -13z"/>
<path d="M4972 5048 c-7 -7 -12 -19 -12 -27 -1 -9 -28 -45 -60 -81 -56 -61
-69 -80 -54 -80 17 0 164 149 164 166 0 21 -25 35 -38 22z"/>
<path d="M5454 4999 c-19 -22 -19 -22 4 -10 12 6 22 16 22 21 0 15 -5 12 -26
-11z"/>
<path d="M5030 4940 c-11 -53 -11 -62 4 -78 21 -24 21 -48 -1 -60 -14 -9 -15
-14 -3 -41 7 -17 10 -34 7 -37 -5 -5 39 -54 49 -54 3 0 3 13 1 29 -6 37 -1 42
29 29 33 -16 33 -55 -1 -64 -14 -3 -24 -11 -23 -18 2 -9 -8 -63 -17 -98 -2 -5
-3 -12 -4 -18 0 -5 -8 -10 -16 -10 -8 0 -15 -4 -15 -9 0 -11 70 -2 86 10 6 5
32 12 58 15 42 6 48 5 53 -15 7 -26 41 -28 85 -5 17 9 47 18 67 20 44 5 91 23
91 35 0 5 11 15 25 21 31 14 34 48 5 48 -12 0 -34 7 -50 15 -20 10 -43 13 -69
9 -22 -4 -56 -3 -76 0 -29 6 -35 11 -35 31 0 14 5 25 10 25 6 0 10 11 10 24 0
27 24 56 46 56 15 0 18 20 8 58 -4 12 -14 22 -25 22 -10 0 -22 8 -27 17 -9 15
-11 15 -26 1 -14 -14 -14 -17 -1 -20 19 -4 6 -23 -22 -32 -20 -6 -23 -4 -23
17 0 20 -10 29 -46 46 -25 12 -53 19 -63 16 -18 -5 -55 16 -57 34 -1 6 -2 18
-3 26 -3 35 -19 11 -31 -45z m73 -134 c4 -10 1 -13 -9 -9 -15 6 -19 23 -5 23
5 0 11 -7 14 -14z m21 -231 c3 -9 0 -15 -9 -15 -8 0 -15 7 -15 15 0 8 4 15 9
15 5 0 11 -7 15 -15z"/>
<path d="M4640 4931 c0 -5 6 -14 14 -21 8 -6 17 -21 19 -33 3 -20 4 -20 11 -4
5 11 2 26 -8 42 -16 25 -36 33 -36 16z"/>
<path d="M4600 4810 c0 -5 10 -10 23 -10 18 0 19 2 7 10 -19 13 -30 13 -30 0z"/>
<path d="M282 4738 c2 -6 10 -14 16 -16 7 -2 10 2 6 12 -7 18 -28 22 -22 4z"/>
<path d="M5681 4519 c-24 -12 -40 -15 -56 -9 -19 7 -24 5 -29 -12 -7 -28 -1
-35 34 -43 37 -8 44 -19 30 -45 -15 -28 -39 -25 -50 5 -8 22 -13 24 -30 15
-28 -15 -50 -51 -57 -93 -4 -29 -2 -36 15 -41 11 -4 37 0 57 8 20 9 59 18 86
22 27 4 52 11 55 15 3 5 1 9 -4 9 -5 0 -21 9 -35 20 l-26 20 24 25 c15 14 42
26 70 30 43 7 45 6 45 -17 0 -14 -13 -35 -32 -51 -23 -21 -28 -31 -20 -39 15
-15 78 4 74 22 -7 29 9 58 33 64 33 8 32 24 -2 32 -16 4 -43 22 -61 40 -19 18
-40 30 -47 28 -7 -3 -16 -1 -20 5 -8 14 -12 13 -54 -10z m-1 -149 c0 -5 -2
-10 -4 -10 -3 0 -8 5 -11 10 -3 6 -1 10 4 10 6 0 11 -4 11 -10z"/>
<path d="M4914 4316 c-9 -15 -14 -29 -11 -32 3 -3 13 6 23 20 9 15 14 29 11
32 -3 3 -13 -6 -23 -20z"/>
<path d="M5920 4313 c0 -5 6 -18 14 -29 17 -22 35 -11 20 13 -12 19 -34 29
-34 16z"/>
<path d="M5490 4264 c-13 -34 -13 -44 4 -44 15 0 26 21 26 51 0 27 -19 23 -30
-7z"/>
<path d="M6010 4271 c0 -5 7 -14 15 -21 8 -7 15 -18 15 -24 0 -8 -2 -8 -8 0
-4 6 -19 13 -34 16 l-27 5 16 -28 c15 -24 15 -31 2 -66 -8 -21 -21 -38 -29
-38 -18 0 -15 -52 3 -73 9 -11 8 -17 -4 -26 -8 -6 -13 -19 -11 -28 2 -10 -1
-18 -7 -18 -6 0 -11 5 -11 10 0 10 -22 -9 -47 -40 -9 -13 -4 -15 32 -16 38 -1
44 2 42 19 -1 14 6 22 28 29 17 5 59 18 95 28 56 17 119 23 308 30 16 0 16 50
-1 50 -7 0 -17 10 -22 21 -15 34 -29 29 -52 -19 0 -2 -9 1 -20 7 -10 5 -26 12
-35 15 -10 3 -18 14 -18 25 0 12 -9 22 -22 26 -13 4 -32 15 -43 25 -11 10 -37
24 -59 31 -21 8 -47 26 -58 41 -18 27 -48 38 -48 19z"/>
<path d="M4864 4235 c-7 -19 -21 -51 -28 -70 -10 -23 -22 -35 -34 -35 -11 0
-40 -3 -64 -6 l-46 -6 4 31 c3 24 0 30 -9 24 -6 -4 -28 -13 -47 -18 -19 -6
-36 -18 -38 -27 -4 -22 26 -50 48 -43 10 3 21 1 25 -5 3 -5 14 -10 23 -10 9 0
23 -4 31 -9 12 -8 12 -12 -2 -26 -14 -13 -17 -14 -17 -2 0 16 -29 27 -70 27
-17 0 -21 -3 -12 -8 7 -5 10 -16 7 -25 -9 -22 40 -54 59 -38 11 9 18 8 30 -4
9 -9 14 -21 10 -26 -3 -6 0 -16 6 -24 9 -11 9 -15 1 -15 -6 0 -11 -4 -11 -10
0 -5 7 -10 15 -10 8 0 15 -7 15 -15 0 -9 6 -12 15 -9 8 4 15 2 15 -4 0 -5 31
-42 68 -81 64 -67 70 -71 95 -62 30 12 35 32 12 51 -9 7 -14 19 -11 26 2 6 2
15 -2 19 -4 4 -8 11 -8 16 -1 5 -2 10 -4 12 -6 7 -7 107 -2 111 4 2 6 25 4 51
-3 36 -8 45 -20 43 -9 -2 -22 -13 -28 -26 -11 -22 -12 -21 -18 18 -3 22 -2 48
4 57 5 10 14 31 20 46 5 16 14 25 20 22 5 -3 10 1 10 10 0 9 -9 19 -20 22 -15
4 -18 11 -13 34 8 41 -15 37 -33 -6z m-7 -182 c-7 -7 -57 8 -57 18 0 4 14 3
31 -3 16 -6 28 -12 26 -15z"/>
<path d="M5610 4228 c-40 -11 -70 -35 -70 -54 0 -8 -11 -12 -30 -11 -24 2 -30
6 -30 26 0 31 -10 21 -27 -27 -13 -38 -27 -192 -17 -192 7 0 87 45 134 76 19
12 51 25 70 29 19 4 43 15 54 24 10 9 32 16 50 16 25 0 32 5 34 23 3 22 22 32
22 11 0 -6 16 -9 38 -7 29 2 38 8 40 25 2 14 -3 23 -17 28 -12 3 -21 10 -21
15 0 22 -170 36 -230 18z"/>
<path d="M4720 4210 c0 -5 4 -10 9 -10 6 0 13 5 16 10 3 6 -1 10 -9 10 -9 0
-16 -4 -16 -10z"/>
<path d="M5911 4014 c0 -11 3 -14 6 -6 3 7 2 16 -1 19 -3 4 -6 -2 -5 -13z"/>
<path d="M4561 3924 c0 -11 3 -14 6 -6 3 7 2 16 -1 19 -3 4 -6 -2 -5 -13z"/>
<path d="M4530 3889 c0 -5 5 -7 10 -4 6 3 10 8 10 11 0 2 -4 4 -10 4 -5 0 -10
-5 -10 -11z"/>
<path d="M4564 3878 c-7 -11 -5 -14 23 -22 30 -10 36 7 7 21 -15 7 -26 8 -30
1z"/>
<path d="M4500 3864 c0 -8 5 -12 10 -9 6 3 10 10 10 16 0 5 -4 9 -10 9 -5 0
-10 -7 -10 -16z"/>
<path d="M4600 3780 c0 -5 4 -10 9 -10 6 0 13 5 16 10 3 6 -1 10 -9 10 -9 0
-16 -4 -16 -10z"/>
<path d="M4820 3720 c0 -5 7 -10 15 -10 8 0 15 5 15 10 0 6 -7 10 -15 10 -8 0
-15 -4 -15 -10z"/>
<path d="M4950 3570 c0 -12 4 -19 9 -16 10 6 37 -22 29 -30 -3 -2 -20 -6 -37
-9 -18 -2 -44 -15 -58 -30 -15 -14 -37 -28 -50 -31 -24 -6 -33 -26 -10 -23 6
1 23 0 37 -1 l25 -2 -24 -7 c-23 -6 -20 -10 38 -44 34 -20 66 -37 70 -37 3 0
13 -9 21 -21 20 -28 52 -43 129 -63 36 -9 70 -21 78 -27 9 -8 25 0 62 32 32
29 72 51 111 63 33 11 60 23 60 28 0 5 8 8 18 6 15 -4 90 26 102 41 3 3 27 17
54 31 82 42 86 44 86 58 0 7 12 17 27 23 15 6 36 20 47 31 19 20 19 20 -4 13
-14 -4 -37 0 -62 11 -32 14 -43 15 -56 6 -10 -7 -36 -21 -58 -31 -41 -19 -65
-41 -45 -41 6 0 11 -4 11 -10 0 -5 -7 -10 -16 -10 -8 0 -12 -5 -9 -10 4 -6 10
-8 15 -5 5 3 11 1 15 -5 4 -6 -4 -9 -19 -8 -15 1 -26 5 -26 9 0 4 -24 -6 -54
-22 -45 -24 -58 -28 -81 -19 -40 15 -68 13 -61 -5 7 -20 0 -19 -24 5 -13 13
-33 20 -60 20 l-40 0 0 43 c0 43 -1 44 -41 56 -23 7 -60 12 -82 11 -71 -3 -82
-1 -105 20 l-22 21 0 -21z m135 -230 c-28 -12 -37 -12 -30 0 3 6 16 10 28 9
21 0 21 -1 2 -9z"/>
<path d="M4770 3489 c0 -5 5 -7 10 -4 6 3 10 8 10 11 0 2 -4 4 -10 4 -5 0 -10
-5 -10 -11z"/>
<path d="M5830 3439 c0 -5 5 -7 10 -4 6 3 10 8 10 11 0 2 -4 4 -10 4 -5 0 -10
-5 -10 -11z"/>
<path d="M4662 3325 c0 -16 2 -22 5 -12 2 9 2 23 0 30 -3 6 -5 -1 -5 -18z"/>
<path d="M5325 3170 c4 -6 11 -8 16 -5 14 9 11 15 -7 15 -8 0 -12 -5 -9 -10z"/>
<path d="M4875 3050 c-3 -5 -1 -10 4 -10 6 0 11 5 11 10 0 6 -2 10 -4 10 -3 0
-8 -4 -11 -10z"/>
<path d="M6110 2789 c0 -5 5 -7 10 -4 6 3 10 8 10 11 0 2 -4 4 -10 4 -5 0 -10
-5 -10 -11z"/>
<path d="M5460 2760 c0 -5 5 -10 10 -10 6 0 10 5 10 10 0 6 -4 10 -10 10 -5 0
-10 -4 -10 -10z"/>
<path d="M6350 2624 c-19 -13 -35 -28 -35 -33 0 -5 -4 -13 -9 -18 -5 -5 -6 -3
-2 5 9 14 -3 16 -24 2 -12 -8 -13 -12 -1 -19 19 -12 71 10 71 30 0 10 12 27
28 38 39 29 14 25 -28 -5z"/>
<path d="M6251 2594 c0 -11 3 -14 6 -6 3 7 2 16 -1 19 -3 4 -6 -2 -5 -13z"/>
<path d="M5440 2580 c0 -5 5 -10 10 -10 6 0 10 5 10 10 0 6 -4 10 -10 10 -5 0
-10 -4 -10 -10z"/>
<path d="M5500 2580 c0 -5 5 -10 10 -10 6 0 10 5 10 10 0 6 -4 10 -10 10 -5 0
-10 -4 -10 -10z"/>
<path d="M5560 2499 c0 -5 5 -7 10 -4 6 3 10 8 10 11 0 2 -4 4 -10 4 -5 0 -10
-5 -10 -11z"/>
<path d="M5430 2490 c0 -5 5 -10 10 -10 6 0 10 5 10 10 0 6 -4 10 -10 10 -5 0
-10 -4 -10 -10z"/>
<path d="M6255 2429 c-4 -6 -5 -12 -2 -15 2 -3 7 2 10 11 7 17 1 20 -8 4z"/>
<path d="M5230 2370 c0 -5 5 -10 10 -10 6 0 10 5 10 10 0 6 -4 10 -10 10 -5 0
-10 -4 -10 -10z"/>
<path d="M5208 2343 c-10 -2 -18 -11 -18 -19 0 -12 4 -12 20 -4 11 6 20 15 20
20 0 6 -1 9 -2 9 -2 -1 -11 -3 -20 -6z"/>
<path d="M4431 2326 c-7 -8 -8 -17 -3 -20 6 -3 13 1 16 10 9 23 2 28 -13 10z"/>
<path d="M5596 2321 c-4 -7 -5 -15 -2 -18 9 -9 19 4 14 18 -4 11 -6 11 -12 0z"/>
<path d="M5140 2309 c0 -5 5 -7 10 -4 6 3 10 8 10 11 0 2 -4 4 -10 4 -5 0 -10
-5 -10 -11z"/>
<path d="M0 2210 c0 -5 5 -10 11 -10 5 0 7 5 4 10 -3 6 -8 10 -11 10 -2 0 -4
-4 -4 -10z"/>
<path d="M52 2190 c7 -10 14 -18 15 -16 6 6 -9 36 -18 36 -5 0 -4 -9 3 -20z"/>
<path d="M28 2173 c7 -3 16 -2 19 1 4 3 -2 6 -13 5 -11 0 -14 -3 -6 -6z"/>
<path d="M147 2106 c-4 -10 -1 -13 9 -9 7 3 14 9 14 14 0 14 -17 10 -23 -5z"/>
<path d="M4127 2096 c-4 -10 -1 -13 9 -9 12 5 19 -12 15 -39 0 -4 6 -5 14 -2
12 5 12 11 -6 35 -23 33 -25 34 -32 15z"/>
<path d="M0 1990 l0 -100 30 0 c17 0 30 4 30 9 0 19 96 30 110 12 7 -9 60 -10
60 -1 0 5 -4 12 -10 15 -5 3 -10 11 -10 18 0 6 6 2 14 -9 14 -18 15 -18 21 -1
20 50 -94 131 -212 151 l-33 6 0 -100z m194 -56 c3 -8 2 -12 -4 -9 -6 3 -10
10 -10 16 0 14 7 11 14 -7z"/>
<path d="M4510 2080 c0 -5 5 -10 10 -10 6 0 10 5 10 10 0 6 -4 10 -10 10 -5 0
-10 -4 -10 -10z"/>
<path d="M5595 2080 c-3 -5 -1 -10 4 -10 6 0 11 5 11 10 0 6 -2 10 -4 10 -3 0
-8 -4 -11 -10z"/>
<path d="M4475 2070 c3 -5 8 -10 11 -10 2 0 4 5 4 10 0 6 -5 10 -11 10 -5 0
-7 -4 -4 -10z"/>
<path d="M5660 2040 c0 -5 9 -10 20 -10 11 0 20 5 20 10 0 6 -9 10 -20 10 -11
0 -20 -4 -20 -10z"/>
<path d="M240 2026 c0 -2 7 -7 16 -10 8 -3 12 -2 9 4 -6 10 -25 14 -25 6z"/>
<path d="M4062 2018 c2 -5 8 -9 13 -9 5 0 11 4 13 9 1 5 -4 9 -13 9 -9 0 -14
-4 -13 -9z"/>
<path d="M5080 2000 c8 -5 20 -10 25 -10 6 0 3 5 -5 10 -8 5 -19 10 -25 10 -5
0 -3 -5 5 -10z"/>
<path d="M5135 2000 c3 -5 16 -10 28 -10 18 0 19 2 7 10 -20 13 -43 13 -35 0z"/>
<path d="M5035 1980 c-3 -5 -1 -10 4 -10 19 0 12 -20 -6 -21 -10 0 -13 -3 -6
-5 14 -6 53 13 53 26 0 5 -7 6 -17 3 -11 -4 -14 -3 -9 5 4 7 3 12 -3 12 -5 0
-13 -4 -16 -10z"/>
<path d="M4898 1953 c-10 -2 -18 -9 -18 -14 0 -14 16 -11 30 6 7 8 11 14 9 14
-2 -1 -12 -3 -21 -6z"/>
<path d="M264 1941 c3 -5 15 -7 26 -4 28 7 25 13 -6 13 -14 0 -23 -4 -20 -9z"/>
<path d="M5650 1899 c0 -5 5 -7 10 -4 6 3 10 8 10 11 0 2 -4 4 -10 4 -5 0 -10
-5 -10 -11z"/>
<path d="M503 1883 c9 -9 20 -13 24 -9 4 4 1 11 -7 16 -25 16 -35 11 -17 -7z"/>
<path d="M4765 1880 c3 -5 14 -10 23 -10 15 0 15 2 2 10 -20 13 -33 13 -25 0z"/>
<path d="M490 1860 c0 -5 5 -10 10 -10 6 0 10 5 10 10 0 6 -4 10 -10 10 -5 0
-10 -4 -10 -10z"/>
<path d="M116 1837 c-16 -12 -15 -15 21 -40 40 -28 87 -35 98 -16 4 6 19 10
33 9 51 -4 56 -2 41 16 -34 41 -152 61 -193 31z"/>
<path d="M567 1839 c7 -7 15 -10 18 -7 3 3 -2 9 -12 12 -14 6 -15 5 -6 -5z"/>
<path d="M6031 1831 c-7 -5 -12 -14 -10 -20 2 -6 10 -2 17 9 14 22 13 23 -7
11z"/>
<path d="M600 1820 c0 -5 5 -10 10 -10 6 0 10 5 10 10 0 6 -4 10 -10 10 -5 0
-10 -4 -10 -10z"/>
<path d="M2800 1810 c0 -5 7 -10 15 -10 8 0 15 5 15 10 0 6 -7 10 -15 10 -8 0
-15 -4 -15 -10z"/>
<path d="M2975 1790 c3 -5 14 -10 23 -10 15 0 15 2 2 10 -20 13 -33 13 -25 0z"/>
<path d="M2825 1780 c-3 -5 -1 -10 4 -10 6 0 11 5 11 10 0 6 -2 10 -4 10 -3 0
-8 -4 -11 -10z"/>
<path d="M2780 1766 c0 -2 7 -7 16 -10 8 -3 12 -2 9 4 -6 10 -25 14 -25 6z"/>
<path d="M2710 1735 c0 -8 2 -15 4 -15 2 0 6 7 10 15 3 8 1 15 -4 15 -6 0 -10
-7 -10 -15z"/>
<path d="M467 1724 c3 -7 9 -14 14 -14 14 0 10 17 -5 23 -10 4 -13 1 -9 -9z"/>
<path d="M908 1693 c7 -3 16 -2 19 1 4 3 -2 6 -13 5 -11 0 -14 -3 -6 -6z"/>
<path d="M988 1693 c7 -3 16 -2 19 1 4 3 -2 6 -13 5 -11 0 -14 -3 -6 -6z"/>
<path d="M1000 1669 c0 -5 5 -7 10 -4 6 3 10 8 10 11 0 2 -4 4 -10 4 -5 0 -10
-5 -10 -11z"/>
<path d="M1130 1669 c0 -5 5 -7 10 -4 6 3 10 8 10 11 0 2 -4 4 -10 4 -5 0 -10
-5 -10 -11z"/>
<path d="M1243 1648 c14 -22 23 -23 30 -4 4 9 -3 16 -18 18 -20 4 -22 3 -12
-14z"/>
<path d="M998 1643 c7 -3 16 -2 19 1 4 3 -2 6 -13 5 -11 0 -14 -3 -6 -6z"/>
<path d="M1128 1643 c7 -3 16 -2 19 1 4 3 -2 6 -13 5 -11 0 -14 -3 -6 -6z"/>
<path d="M2465 1630 c11 -5 29 -9 40 -9 l20 0 -20 9 c-11 5 -29 9 -40 9 l-20
0 20 -9z"/>
<path d="M2328 1623 c7 -3 16 -2 19 1 4 3 -2 6 -13 5 -11 0 -14 -3 -6 -6z"/>
<path d="M3645 1620 c-3 -5 1 -10 9 -10 9 0 16 5 16 10 0 6 -4 10 -9 10 -6 0
-13 -4 -16 -10z"/>
<path d="M4310 1620 c0 -5 7 -10 16 -10 8 0 12 5 9 10 -3 6 -10 10 -16 10 -5
0 -9 -4 -9 -10z"/>
<path d="M4357 1619 c8 -8 16 -8 30 0 16 9 14 10 -11 11 -22 0 -27 -3 -19 -11z"/>
<path d="M820 1610 c-9 -6 -10 -10 -3 -10 6 0 15 5 18 10 8 12 4 12 -15 0z"/>
<path d="M1461 1603 c-13 -14 -12 -15 13 -9 25 6 26 5 17 -13 -13 -24 -14 -31
-2 -31 14 0 21 54 8 62 -16 10 -20 10 -36 -9z"/>
<path d="M538 1603 c7 -3 16 -2 19 1 4 3 -2 6 -13 5 -11 0 -14 -3 -6 -6z"/>
<path d="M3410 1590 c0 -5 9 -10 19 -10 11 0 23 5 26 10 4 6 -5 10 -19 10 -14
0 -26 -4 -26 -10z"/>
<path d="M1388 1583 c6 -2 18 -2 25 0 6 3 1 5 -13 5 -14 0 -19 -2 -12 -5z"/>
<path d="M2065 1580 c-4 -6 -2 -17 4 -23 15 -15 25 -2 13 19 -7 12 -11 13 -17
4z"/>
<path d="M5166 1575 c-11 -8 -16 -15 -10 -15 5 0 18 7 28 15 11 8 16 15 10 15
-5 0 -18 -7 -28 -15z"/>
<path d="M1608 1558 c-4 -11 14 -38 24 -38 2 0 3 11 3 25 0 26 -20 35 -27 13z"/>
<path d="M78 1533 c7 -3 16 -2 19 1 4 3 -2 6 -13 5 -11 0 -14 -3 -6 -6z"/>
<path d="M133 1534 c-44 -10 -22 -64 34 -86 48 -19 116 -15 151 8 15 10 33 17
41 16 27 -6 -1 19 -44 38 -45 20 -141 33 -182 24z"/>
<path d="M785 1500 c-16 -16 -23 -30 -17 -30 7 0 12 5 12 10 0 14 26 13 51 -2
17 -11 22 -10 33 5 14 19 51 23 61 7 3 -5 14 -10 23 -10 10 0 0 11 -23 25 -56
35 -104 33 -140 -5z"/>
<path d="M1925 1480 c-3 -5 -1 -10 4 -10 6 0 11 5 11 10 0 6 -2 10 -4 10 -3 0
-8 -4 -11 -10z"/>
<path d="M2135 1430 c3 -5 8 -10 11 -10 2 0 4 5 4 10 0 6 -5 10 -11 10 -5 0
-7 -4 -4 -10z"/>
<path d="M1680 1420 c0 -5 5 -10 10 -10 6 0 10 5 10 10 0 6 -4 10 -10 10 -5 0
-10 -4 -10 -10z"/>
<path d="M561 1408 c-35 -4 -68 -11 -74 -17 -19 -19 8 -65 49 -85 70 -34 70
-34 229 -65 41 -8 53 -7 67 6 9 8 21 12 26 9 5 -3 18 1 28 9 18 13 18 14 -4
38 -62 66 -217 117 -321 105z"/>
<path d="M1316 1403 c-33 -9 -75 -39 -68 -48 26 -36 149 -64 136 -31 -8 21 9
27 46 16 41 -12 47 -7 31 23 -18 33 -91 54 -145 40z"/>
<path d="M4086 1399 c2 -4 -10 -12 -26 -18 -17 -5 -33 -17 -36 -25 -3 -9 -10
-14 -15 -11 -4 3 -13 -4 -20 -16 -10 -19 -8 -25 12 -40 54 -41 216 -68 234
-39 4 6 15 8 25 5 10 -3 36 1 57 10 29 12 34 18 23 25 -8 5 -11 12 -7 16 3 4
13 2 20 -4 19 -16 29 -4 16 20 -18 34 -108 68 -201 76 -48 4 -85 5 -82 1z"/>
<path d="M5490 1380 c0 -5 5 -10 11 -10 5 0 7 5 4 10 -3 6 -8 10 -11 10 -2 0
-4 -4 -4 -10z"/>
<path d="M1570 1360 c0 -5 5 -10 11 -10 5 0 7 5 4 10 -3 6 -8 10 -11 10 -2 0
-4 -4 -4 -10z"/>
<path d="M400 1339 c0 -5 5 -7 10 -4 6 3 10 8 10 11 0 2 -4 4 -10 4 -5 0 -10
-5 -10 -11z"/>
<path d="M3288 1273 c7 -3 16 -2 19 1 4 3 -2 6 -13 5 -11 0 -14 -3 -6 -6z"/>
<path d="M20 1189 c0 -11 -4 -17 -10 -14 -7 4 -10 -193 -10 -584 l0 -591 3200
0 3200 0 0 584 0 585 -72 -25 c-40 -14 -82 -29 -93 -34 -36 -16 -100 -34 -109
-32 -4 2 -28 -7 -52 -19 -25 -11 -60 -21 -79 -22 -19 -1 -35 -5 -35 -9 0 -4
-5 -8 -11 -8 -6 0 -25 -6 -42 -14 -95 -41 -489 -140 -762 -192 -44 -8 -96 -19
-115 -24 -19 -5 -71 -14 -115 -19 -82 -11 -95 -13 -200 -31 -33 -5 -100 -14
-150 -20 -49 -6 -135 -17 -190 -25 -290 -40 -986 -77 -1135 -59 -45 5 -86 6
-93 2 -26 -17 -489 3 -857 38 -85 8 -170 14 -187 14 -19 0 -41 8 -51 18 -15
15 -22 16 -38 6 -15 -10 -57 -7 -218 16 -109 16 -240 38 -290 49 -119 26 -317
61 -344 61 -11 0 -27 7 -36 15 -8 8 -22 12 -30 9 -15 -6 -28 -3 -91 22 -11 4
-38 9 -59 10 -24 1 -43 9 -48 18 -6 11 -14 14 -24 8 -14 -8 -184 33 -239 57
-11 5 -45 14 -75 20 -78 16 -87 18 -122 36 -17 8 -39 15 -49 15 -10 0 -21 5
-24 10 -3 6 -19 10 -36 10 -16 0 -37 4 -47 9 -9 5 -64 23 -121 41 -92 29 -105
35 -114 61 -13 34 -27 38 -27 8z"/>
<path d="M2380 1139 c0 -5 5 -7 10 -4 6 3 10 8 10 11 0 2 -4 4 -10 4 -5 0 -10
-5 -10 -11z"/>
<path d="M465 1120 c-3 -5 -1 -10 4 -10 6 0 11 5 11 10 0 6 -2 10 -4 10 -3 0
-8 -4 -11 -10z"/>
<path d="M3370 1100 c-13 -9 -13 -11 0 -20 19 -13 47 -13 55 0 3 6 15 10 26
10 11 0 17 5 14 10 -8 13 -75 13 -95 0z"/>
<path d="M2950 1030 c0 -5 5 -10 10 -10 6 0 10 5 10 10 0 6 -4 10 -10 10 -5 0
-10 -4 -10 -10z"/>
<path d="M1985 1000 c3 -5 8 -10 11 -10 2 0 4 5 4 10 0 6 -5 10 -11 10 -5 0
-7 -4 -4 -10z"/>
<path d="M1746 981 c-4 -5 -2 -12 3 -15 5 -4 12 -2 15 3 4 5 2 12 -3 15 -5 4
-12 2 -15 -3z"/>
<path d="M2460 859 c0 -5 5 -7 10 -4 6 3 10 8 10 11 0 2 -4 4 -10 4 -5 0 -10
-5 -10 -11z"/>
<path d="M4070 770 c0 -5 5 -10 11 -10 5 0 7 5 4 10 -3 6 -8 10 -11 10 -2 0
-4 -4 -4 -10z"/>
</g>
</svg>
